<svg width="200" height="24" viewBox="0 0 200 24" fill="none" xmlns="http://www.w3.org/2000/svg">
<g clip-path="url(#clip0_261:2353)">
<path d="M89.884 11.716C89.884 18.1232 84.6669 23.432 78.1681 23.432C71.6694 23.432 66.4521 18.2147 66.4521 11.716C66.4521 5.2173 71.6694 0 78.1681 0C84.6669 0 89.884 5.2173 89.884 11.716Z" fill="white"/>
<path d="M2.37981 11.8988C2.28828 11.7158 2.37981 11.4412 2.37981 11.3497C2.47134 11.1666 2.56287 10.9835 2.74593 10.892C2.74593 10.892 3.84431 10.4343 4.75962 8.9699C5.85799 7.2308 7.32249 5.4917 10.7091 5.4917V6.3154C10.7091 6.3154 10.7091 7.0477 10.0684 7.1392C9.24465 7.2308 7.50555 7.8715 6.49871 9.7936C5.67493 11.2581 4.57656 11.5327 4.57656 11.5327L10.8007 18.0314C9.33618 18.0314 8.42087 17.9399 8.14627 17.8484C7.78015 17.7568 7.32249 17.3907 6.68177 16.6585L2.56287 12.0819C2.47134 12.1734 2.37981 12.0819 2.37981 11.8988ZM21.4183 13.0888C21.4183 16.5669 19.9538 18.306 17.1163 18.306C15.3772 18.306 14.2789 17.8484 13.7297 16.9331V22.0588C12.7228 22.0588 12.0821 21.9673 11.899 21.8757C11.716 21.7842 11.6245 21.235 11.6245 20.4112V8.0545C12.4482 8.0545 12.9059 8.1461 12.9974 8.2376C13.089 8.3291 13.1805 8.7868 13.1805 9.519C13.8212 8.5122 15.1026 7.963 17.0248 7.963C19.9538 7.8715 21.4183 9.6106 21.4183 13.0888ZM19.3131 13.0888C19.3131 11.9904 19.13 11.0751 18.7639 10.6174C18.3062 9.9767 17.574 9.7021 16.4756 9.7021C15.1026 9.7021 14.2789 9.8852 14.0043 10.1598C13.7297 10.4343 13.6381 11.4412 13.6381 13.1803C13.6381 14.2787 13.8212 15.1024 14.0958 15.6516C14.5535 16.2923 15.2857 16.6585 16.3841 16.6585C17.757 16.6585 18.5808 16.4754 18.8554 16.2008C19.2215 15.8347 19.3131 14.8278 19.3131 13.0888ZM31.8528 12.265C31.8528 13.0888 31.7613 13.6379 31.5782 13.7295C31.3952 13.821 30.7545 13.9125 29.6561 13.9125H24.3473C24.3473 14.6448 24.6219 15.2855 25.0795 15.7432C25.5372 16.2008 26.2694 16.4754 27.1848 16.4754H29.3815C30.2053 16.4754 30.6629 16.5669 30.846 16.6585C31.0291 16.75 31.0291 17.2992 31.0291 18.123H27.2763C23.9812 18.123 22.2421 16.3839 22.2421 12.9972C22.2421 9.6106 23.8896 7.8715 27.2763 7.8715C28.7408 7.8715 29.8392 8.3291 30.6629 9.1529C31.4867 9.9767 31.8528 10.9835 31.8528 12.265ZM29.6561 12.265C29.6561 10.4343 28.8323 9.519 27.0932 9.519C25.7203 9.519 24.988 9.6106 24.7134 9.8852C24.4388 10.1598 24.3473 10.892 24.3473 12.265H29.6561ZM42.745 18.123V18.6722C42.745 19.4959 42.6535 20.0451 42.4705 20.1367C42.2874 20.3197 41.6467 20.3197 40.6398 20.3197V18.0314H34.1411V20.3197C33.1343 20.3197 32.4936 20.2282 32.3105 20.1367C32.1274 20.0451 32.0359 19.4959 32.0359 18.6722V18.123C32.0359 17.2077 32.1274 16.75 32.219 16.6585C32.3105 16.5669 32.5851 16.4754 33.0427 16.4754C34.3242 15.194 34.6903 11.7158 34.7818 9.7021V9.519C34.7818 8.7868 34.8734 8.4207 34.9649 8.2376C35.0564 8.0545 35.6056 8.0545 36.4294 8.0545H39.9076C40.7314 8.0545 41.189 8.1461 41.3721 8.2376C41.5551 8.3291 41.5551 8.6953 41.5551 9.519V16.4754C42.0128 16.4754 42.3789 16.5669 42.4705 16.6585C42.6535 16.8415 42.745 17.2992 42.745 18.123ZM39.5415 15.8347V9.7021H36.6125C36.6125 10.3428 36.5209 11.4412 36.4294 12.6311C36.2463 13.821 35.9717 15.2855 35.331 16.4754H38.8092C39.3584 16.4754 39.4499 16.2008 39.4499 16.0177L39.5415 15.8347ZM2.19675 18.2145C1.09837 18.2145 0.457656 18.123 0.274593 18.0314C0.0915312 17.8484 0 17.3907 0 16.4754V5.5832C1.09837 5.5832 1.73909 5.6747 1.92215 5.7663C2.10522 5.9493 2.19675 6.407 2.19675 7.2308V18.2145ZM43.7519 18.123V7.963C44.8503 7.963 45.491 8.0545 45.674 8.1461C45.8571 8.2376 45.9486 8.6953 45.9486 9.4275V15.377L49.7014 9.2444C50.1591 8.6037 50.4337 8.2376 50.7083 8.1461C50.8913 8.0545 51.4405 7.963 52.2643 7.963H53.3627V16.3839C53.3627 17.2992 53.2711 17.7568 53.0881 17.9399C52.905 18.123 52.2643 18.123 51.1659 18.123V10.6174L47.4131 16.75C46.9555 17.4822 46.5894 17.8484 46.4063 17.9399C46.2232 18.0314 45.674 18.123 44.9418 18.123H43.7519ZM63.7057 7.963C63.7057 8.8783 63.6141 9.4275 63.5226 9.519C63.4311 9.7021 62.8819 9.7021 62.0581 9.7021H60.136V18.0314C59.1291 18.0314 58.4884 17.9399 58.3053 17.8484C58.1223 17.6653 58.0307 17.2077 58.0307 16.2923V9.7021H54.3695C54.3695 8.7868 54.461 8.2376 54.5526 8.1461C54.6441 7.963 55.1017 7.963 55.9255 7.963H63.7057Z" fill="#005BAA"/>
<path d="M111.485 15.1024C111.485 14.2787 110.936 13.7295 109.471 13.7295H105.352V16.4754H109.471C110.57 16.4754 111.21 16.3839 111.302 16.2923C111.302 16.2923 111.485 15.9262 111.485 15.1024ZM109.288 9.519H105.261V12.0819H109.38C110.387 12.0819 110.844 11.9904 110.936 11.8988C111.027 11.8073 111.119 11.5327 111.119 10.8005C111.21 9.9767 110.661 9.519 109.288 9.519ZM105.078 18.123C104.254 18.123 103.796 18.0314 103.613 17.9399C103.522 17.8484 103.43 17.3907 103.43 16.6585V9.336C103.43 8.6037 103.522 8.1461 103.613 8.0545C103.796 7.963 104.254 7.8715 105.078 7.8715H109.288C111.851 7.8715 113.132 8.7868 113.132 10.5259C113.132 11.6243 112.766 12.3565 111.943 12.6311L111.76 12.7226L111.943 12.8142C112.4 12.9972 112.766 13.2718 113.041 13.7295C113.316 14.1871 113.499 14.6448 113.499 15.194C113.499 17.2077 112.126 18.2145 109.471 18.2145C109.288 18.123 105.078 18.123 105.078 18.123ZM124.299 12.9972C124.299 16.4754 122.926 18.2145 119.997 18.2145C118.258 18.2145 117.16 17.7568 116.611 16.8415V21.9673C115.604 21.9673 114.963 21.8757 114.78 21.7842C114.597 21.6927 114.505 21.1435 114.505 20.3197V7.963C115.329 7.963 115.787 8.0545 115.878 8.1461C115.97 8.2376 116.061 8.6953 116.061 9.4275C116.702 8.4207 117.984 7.8715 119.906 7.8715C122.926 7.7799 124.299 9.519 124.299 12.9972ZM122.194 12.9972C122.194 11.8988 122.011 10.9835 121.645 10.5259C121.187 9.8852 120.455 9.6106 119.448 9.6106C118.075 9.6106 117.251 9.7936 116.977 10.0682C116.702 10.3428 116.611 11.3497 116.611 13.0888C116.611 14.1871 116.794 15.0109 117.068 15.5601C117.526 16.2008 118.258 16.5669 119.357 16.5669C120.73 16.5669 121.553 16.3839 121.828 16.1093C122.103 15.7432 122.194 14.7363 122.194 12.9972ZM135.466 12.9972C135.466 16.4754 133.819 18.123 130.432 18.123C127.137 18.123 125.489 16.3839 125.489 12.9972C125.489 9.6106 127.137 7.8715 130.523 7.8715C133.819 7.8715 135.466 9.519 135.466 12.9972ZM133.361 12.9972C133.361 11.8988 133.178 11.0751 132.812 10.6174C132.354 9.9767 131.622 9.6106 130.523 9.6106C129.059 9.6106 128.235 9.7936 128.052 10.0682C127.777 10.3428 127.686 11.3497 127.686 13.0888C127.686 15.377 128.601 16.5669 130.523 16.5669C131.988 16.5669 132.812 16.3839 132.995 16.1093C133.178 15.7432 133.361 14.7363 133.361 12.9972ZM145.718 17.7568C145.535 17.9399 144.894 17.9399 143.795 17.9399V9.9767H138.761V17.9399C137.663 17.9399 137.022 17.8484 136.839 17.7568C136.656 17.5738 136.564 17.1161 136.564 16.2008V9.7936C136.564 8.7868 136.656 8.2376 136.748 8.0545C136.931 7.8715 137.388 7.7799 138.304 7.7799H144.162C145.077 7.7799 145.535 7.8715 145.718 8.0545C145.901 8.2376 145.901 8.7868 145.901 9.7936V16.2008C145.992 17.1161 145.901 17.6653 145.718 17.7568ZM156.518 18.0314C155.694 18.0314 155.237 17.9399 155.145 17.8484C155.054 17.7568 154.962 17.2992 154.962 16.4754C154.688 16.9331 154.23 17.2992 153.589 17.5738C152.857 17.9399 152.033 18.123 151.026 18.123C149.836 18.123 148.921 17.8484 148.28 17.3907C147.548 16.8415 147.091 16.1093 147.091 15.1024C147.091 14.0956 147.457 13.2718 148.097 12.7226C148.83 12.0819 149.928 11.8073 151.301 11.8073H154.505C154.505 11.0751 154.322 10.5259 153.864 10.2513C153.406 9.9767 152.765 9.7936 151.759 9.7936H149.562C148.83 9.7936 148.372 9.7021 148.189 9.6106C148.097 9.4275 148.006 8.9699 148.006 8.1461H151.576C153.498 8.1461 154.779 8.5122 155.511 9.336C156.152 9.9767 156.427 10.9835 156.427 12.448L156.518 18.0314ZM154.413 13.7295V13.4549H151.576C150.386 13.4549 149.745 13.5464 149.562 13.6379C149.379 13.7295 149.287 14.2787 149.287 15.1024C149.287 16.1093 150.02 16.5669 151.576 16.5669C153.04 16.5669 153.864 16.4754 154.138 16.2008C154.322 15.9262 154.413 15.1024 154.413 13.7295ZM102.057 18.123H95.3755C94.2771 18.123 93.6364 18.0314 93.4533 17.9399C93.2702 17.7568 93.1787 17.2992 93.1787 16.3839V7.2308C93.1787 6.3154 93.2702 5.7663 93.4533 5.6747C93.6364 5.4917 94.2771 5.4917 95.3755 5.4917H100.227C101.142 5.4917 101.6 5.5832 101.783 5.6747C101.966 5.8578 101.966 6.3154 101.966 7.2308H95.2839V10.7089H99.5859C100.501 10.7089 100.959 10.8005 101.142 10.892C101.325 11.0751 101.325 11.5327 101.325 12.448H95.2839V16.2008H100.044C101.05 16.2008 101.6 16.2923 101.691 16.3839C101.966 16.75 102.057 17.2077 102.057 18.123Z" fill="#005BAA"/>
<path d="M72.859 11.7159L78.2594 17.1163L83.6597 11.7159L78.2594 6.31563L72.859 11.7159ZM67.3672 11.7159C67.3672 5.67493 72.2183 0.82373 78.2594 0.82373C84.3004 0.82373 89.1516 5.67493 89.1516 11.7159C89.1516 17.757 84.3004 22.6081 78.2594 22.6081C72.2183 22.5166 67.3672 17.6654 67.3672 11.7159Z" fill="#ED1C24"/>
<path d="M192.948 18.1232C191.849 18.1232 191.209 18.0317 191.025 17.9401C190.842 17.7571 190.751 17.2994 190.751 16.3841V7.78019C191.849 7.78019 192.49 7.87169 192.673 7.96319C192.856 8.05479 192.948 8.60389 192.948 9.33619V18.1232ZM199.996 18.0317C198.806 18.0317 197.89 18.0317 197.616 17.9401C197.341 17.8486 196.975 17.574 196.426 17.0248L193.222 13.3636C193.131 13.1805 193.039 12.9974 193.039 12.8144C193.039 12.8144 193.039 12.2652 193.405 12.0821C193.405 12.0821 194.412 11.6245 195.236 10.4346C196.151 9.06159 197.25 7.87169 199.996 7.87169V8.69549C199.996 8.69549 200.087 9.51929 199.446 9.61079C198.806 9.70229 197.89 9.88539 196.609 11.6245C195.877 12.6313 195.419 12.8144 195.419 12.8144L199.996 18.0317ZM178.486 18.0317C177.662 18.0317 177.204 17.9401 177.113 17.8486C177.021 17.7571 176.93 17.2994 176.93 16.4756C176.655 16.9333 176.197 17.2994 175.557 17.574C174.824 17.9401 174.001 18.1232 172.994 18.1232C171.804 18.1232 170.889 17.8486 170.248 17.3909C169.516 16.8418 169.058 16.1095 169.058 15.1027C169.058 14.0958 169.424 13.272 170.065 12.7229C170.797 12.0821 171.895 11.8075 173.268 11.8075H176.472C176.472 11.0753 176.289 10.5261 175.831 10.2515C175.374 9.97689 174.733 9.79389 173.726 9.79389H171.621C170.889 9.79389 170.431 9.70229 170.248 9.61079C170.156 9.42769 170.065 8.97009 170.065 8.14629H173.635C175.557 8.14629 176.838 8.51239 177.57 9.33619C178.211 9.97689 178.486 10.9838 178.486 12.4483V18.0317ZM176.472 13.7297V13.4551H173.635C172.445 13.4551 171.804 13.5466 171.621 13.6382C171.438 13.7297 171.346 14.2789 171.346 15.1027C171.346 16.1095 172.079 16.5672 173.635 16.5672C175.099 16.5672 175.923 16.4756 176.197 16.201C176.289 15.9264 176.472 15.1027 176.472 13.7297ZM167.594 12.2652C167.685 12.3567 167.685 12.4483 167.777 12.5398L167.868 12.7229C167.868 12.5398 167.777 12.4483 167.594 12.2652ZM168.326 14.3704C168.326 16.8418 166.678 18.0317 163.292 18.0317H160.363C159.356 18.0317 158.715 17.9401 158.532 17.8486C158.349 17.6655 158.257 17.2079 158.257 16.2926V7.13949C158.257 6.22409 158.349 5.76649 158.532 5.58339C158.715 5.40039 159.356 5.40039 160.363 5.40039H167.594C167.594 5.40039 167.502 6.40719 167.41 6.68179C167.319 6.95639 167.227 7.13949 166.587 7.13949H160.454V10.7092H163.749C166.037 10.7092 167.136 11.716 167.594 12.2652C167.777 12.4483 167.868 12.6313 167.868 12.7229C168.143 13.272 168.326 13.7297 168.326 14.3704ZM166.037 14.3704C166.037 13.089 165.122 12.5398 163.383 12.5398H160.454V16.3841H163.383C164.756 16.3841 165.58 16.2926 165.763 16.1095C165.946 15.8349 166.037 15.2857 166.037 14.3704ZM189.286 18.0317C188.188 18.0317 187.547 17.9401 187.364 17.8486C187.181 17.6655 187.09 17.2079 187.09 16.2926V13.5466H182.055V18.1232C180.957 18.1232 180.316 18.0317 180.133 17.9401C179.95 17.7571 179.859 17.2994 179.859 16.3841V7.87169C180.957 7.87169 181.598 7.96319 181.781 8.05479C181.964 8.23779 182.055 8.69549 182.055 9.61079V11.716H187.09V7.87169C188.188 7.87169 188.829 7.96319 189.012 8.05479C189.195 8.23779 189.286 8.69549 189.286 9.61079V18.0317Z" fill="#ED1C24"/>
</g>
<defs>
<clipPath id="clip0_261:2353">
<rect width="200" height="24" fill="white"/>
</clipPath>
</defs>
</svg>
