<svg width="171" height="34" viewBox="0 0 171 34" fill="none" xmlns="http://www.w3.org/2000/svg">
<path d="M0 16.79C0.0026 12.3378 1.7724 8.0688 4.9206 4.9206C8.0688 1.77244 12.3378 0.00265 16.79 0V6.08C14.6661 6.084 12.5912 6.7182 10.828 7.9023C9.0648 9.0864 7.6927 10.7671 6.8855 12.7316C6.0782 14.6961 5.8721 16.856 6.2932 18.9377C6.7144 21.0194 7.7439 22.9293 9.2513 24.4255C10.7587 25.9217 12.6763 26.9369 14.7611 27.3425C16.8459 27.7481 19.0041 27.5259 20.9625 26.704C22.9209 25.882 24.5914 24.4974 25.7623 22.7254C26.9332 20.9535 27.5519 18.8739 27.54 16.75H33.62C33.62 21.2083 31.849 25.484 28.6965 28.6365C25.544 31.7889 21.2683 33.56 16.81 33.56C12.3517 33.56 8.076 31.7889 4.9235 28.6365C1.771 25.484 0 21.2083 0 16.75" fill="#016438"/>
<path d="M22 7.34954C22.004 6.50674 22.2573 5.68394 22.728 4.98484C23.1987 4.28574 23.8658 3.74154 24.6452 3.42084C25.4246 3.10014 26.2815 3.01723 27.1079 3.18263C27.9343 3.34803 28.6933 3.75424 29.2893 4.35024C29.8853 4.94624 30.2915 5.70523 30.4569 6.53163C30.6223 7.35803 30.5395 8.21494 30.2188 8.99434C29.898 9.77384 29.3539 10.4408 28.6547 10.9116C27.9556 11.3823 27.1328 11.6355 26.29 11.6395C25.7263 11.6408 25.1678 11.5308 24.6467 11.3156C24.1257 11.1005 23.6522 10.7846 23.2536 10.3859C22.855 9.98734 22.539 9.51393 22.3239 8.99283C22.1088 8.47173 21.9987 7.91324 22 7.34954Z" fill="#016438"/>
<path d="M9.39014 16.7906C9.39014 15.3191 9.82654 13.8807 10.644 12.6572C11.4615 11.4336 12.6235 10.48 13.983 9.91688C15.3424 9.35378 16.8384 9.20648 18.2816 9.49358C19.7248 9.78058 21.0505 10.4892 22.091 11.5297C23.1315 12.5702 23.8401 13.8959 24.1272 15.3391C24.4142 16.7823 24.2669 18.2783 23.7038 19.6378C23.1407 20.9972 22.1871 22.1592 20.9636 22.9767C19.7401 23.7942 18.3016 24.2306 16.8301 24.2306C14.8577 24.2279 12.9669 23.4432 11.5722 22.0485C10.1775 20.6538 9.39284 18.763 9.39014 16.7906Z" fill="#4FAE2E"/>
<path d="M153.21 11.6003L152.7 14.1503C151.47 19.6803 151 21.5003 150 27.0003L149.74 27.2103L146.38 27.2903L146.21 27.0803L147.57 21.3803L147.95 19.5103H140.76C140.25 21.7203 139.87 23.7203 139.23 26.9903L138.97 27.2003L135.61 27.2803L135.44 27.0703L136.8 21.3703L137.35 18.9103C138.027 16.1648 138.551 13.3838 138.92 10.5803L139.13 10.3703C140.303 10.2323 141.467 10.0354 142.62 9.78031L142.79 9.99031L142.45 11.6503L142 14.1903L141.45 16.6103H148.68C149.15 14.4903 149.32 13.3403 149.74 10.6103L149.95 10.4003C151.123 10.2659 152.288 10.0689 153.44 9.81031L153.61 10.0203L153.27 11.5903L153.21 11.6003ZM112.71 19.0003C112.938 18.0666 113.065 17.1112 113.09 16.1503C113.09 12.7903 110.92 12.2403 109.69 12.2403C104.46 12.2403 103.82 20.3103 103.82 21.5503C103.82 24.1903 105.39 25.3803 107.22 25.3803C110.75 25.3803 112.07 21.7303 112.7 19.0103L112.71 19.0003ZM116.14 20.0703C115.42 22.9203 113.38 27.8503 107.14 27.8503C102.72 27.8503 100.3 25.5503 100.3 21.0503C100.304 20.4116 100.347 19.7737 100.43 19.1403C100.436 18.9677 100.463 18.7964 100.51 18.6303C101.7 11.1303 104.93 4.00031 112.07 4.00031C113.467 3.98761 114.86 3.84361 116.23 3.57031L115.76 6.57031C114.239 6.90311 112.687 7.07401 111.13 7.08031C110.527 7.06701 109.928 7.17321 109.367 7.39291C108.806 7.61261 108.293 7.94141 107.86 8.36031C107.539 8.68151 107.254 9.03691 107.01 9.42031C106.821 9.69881 106.663 9.99721 106.54 10.3103C107.56 9.99281 108.622 9.83431 109.69 9.84031C114.03 9.84031 116.62 12.2603 116.62 16.5503C116.608 17.7417 116.45 18.9272 116.15 20.0803L116.14 20.0703ZM158.91 17.0003C159.72 16.3203 160.14 15.9003 161.25 14.8303C162.36 13.7603 165.25 10.8303 165.76 10.2403L166.14 10.0303H169.92L170.01 10.3303C169.67 10.6303 169.5 10.7503 168.18 11.8603C167.67 12.2903 167.33 12.6203 166.69 13.1803L162.4 17.1803L167.54 26.9103L167.33 27.1603L163.67 27.2503L163.41 27.0403C162.56 25.0403 162.3 24.5303 161.12 22.1103L158.83 17.4303C158.11 20.6603 157.64 22.7003 156.83 26.9503L156.62 27.1603L153.26 27.2503L153.09 27.0403L154.45 21.3503L154.96 18.8903C155.637 16.1448 156.161 13.3638 156.53 10.5603L156.74 10.3503C157.913 10.2159 159.078 10.0189 160.23 9.76031L160.4 9.97031L160.06 11.6303L159.55 14.1803L158.91 17.0003ZM129.71 23.0003C129.369 23.32 128.997 23.6047 128.6 23.8503C127.724 24.3621 126.725 24.6249 125.71 24.6103C122.71 24.6103 121.84 22.0603 121.84 20.4903C121.886 19.1658 122.227 17.8683 122.838 16.692C123.448 15.5157 124.313 14.4903 125.37 13.6903C126.935 12.7125 128.756 12.2249 130.6 12.2903H132.09L129.71 23.0003ZM136 10.0703L135.83 9.81031H131.28C128.22 9.81031 123.97 10.0203 120.87 13.6403C119.243 15.6577 118.316 18.1498 118.23 20.7403C118.23 24.8603 120.99 27.2403 124.35 27.2403C126.12 27.3015 127.847 26.6947 129.19 25.5403L129 26.8203L129.17 27.0703L132.27 26.9803L132.53 26.7703C133.21 22.7703 133.42 21.5803 134.53 16.4803L136 10.0703Z" fill="#4FAE2E"/>
<path d="M48.6602 27.7501C45.0502 27.7501 39.9102 26.6001 41.7802 18.3101C42.5002 15.2101 44.6302 8.58008 53.5102 8.58008C62.1402 8.58008 60.8602 15.6401 60.3102 18.1401C58.6902 25.1601 54.4002 27.7501 48.6602 27.7501ZM49.8102 24.0501C52.3202 24.0501 53.5102 21.4101 54.2702 18.0501C54.8202 15.6701 55.3802 12.1901 52.3602 12.1901C49.7702 12.1901 48.6202 14.7001 47.8602 18.0501C47.1802 21.2101 47.0002 24.0601 49.8102 24.0601V24.0501ZM69.7002 27.3301H64.1702L64.0002 27.1601C64.3402 26.0601 65.1102 23.0801 65.9102 19.4201C66.5902 16.4901 67.1402 13.8901 67.4002 12.7101C66.0002 12.7101 63.8702 12.7101 62.8102 12.8001L62.6402 12.5401C62.9002 11.6501 63.3202 10.0701 63.5302 9.14008L63.8302 8.97008C64.7602 8.97008 68.2902 9.06008 71.1002 9.06008C74.5402 9.06008 77.8602 8.97008 78.5802 8.93008L78.8402 9.10008C78.5802 9.91008 78.1202 11.6101 77.9102 12.5001L77.5702 12.7101H73.1902C73.0202 13.4701 72.4702 15.7101 71.5702 19.6401C70.8902 22.6401 70.3402 25.3301 70.0402 27.0801L69.7402 27.3801L69.7002 27.3301ZM89.0002 13.1301H86.0702C85.9002 13.8901 85.2202 16.7401 84.5802 19.5101C83.8602 22.7801 83.1802 25.8001 82.9202 27.0701L82.5802 27.2801H76.9702L76.7602 27.0701C77.1002 25.6701 78.0302 21.7601 78.8902 17.9301C79.7502 14.1001 80.5102 10.2401 80.7602 9.17008L81.0002 9.00008C82.8702 9.00008 84.7402 9.09008 89.3702 9.09008C93.0302 9.09008 96.5102 8.96008 98.3702 8.96008L98.5402 9.17008C98.2802 10.1101 97.2602 14.5701 96.2502 18.9901C95.4402 22.5601 94.7202 26.1301 94.5102 27.1101L94.2502 27.3201H88.6002L88.4302 27.0701C88.7302 25.8801 89.4302 23.0701 90.1702 19.5901C90.7602 16.9501 91.3602 14.1501 91.6102 13.1301H88.9302H89.0002Z" fill="#016438"/>
</svg>
