<svg xmlns="http://www.w3.org/2000/svg" width="160" height="36" viewBox="0 0 160 36" fill="none">
    <path
        d="M36.6001 4.25014H44.0001C45.6389 4.23914 47.2165 4.87234 48.393 6.01334C49.5695 7.15434 50.2508 8.71174 50.2901 10.3501C50.2742 12.0051 49.6036 13.5866 48.4248 14.7484C47.2461 15.9103 45.6552 16.5581 44.0001 16.5501H39.4001V21.5501H36.6001V4.25014ZM43.7301 13.9201C44.2128 13.9402 44.6946 13.863 45.1469 13.693C45.5991 13.523 46.0125 13.2638 46.3624 12.9306C46.7123 12.5975 46.9916 12.1973 47.1836 11.754C47.3757 11.3107 47.4765 10.8332 47.4801 10.3501C47.4836 9.86494 47.3876 9.38424 47.198 8.93754C47.0085 8.49094 46.7294 8.08784 46.3779 7.75334C46.0265 7.41874 45.6102 7.15984 45.1548 6.99244C44.6994 6.82504 44.2145 6.75284 43.7301 6.78014H39.4101V13.9101L43.7301 13.9201ZM51.1401 15.2301C51.0996 14.3642 51.2388 13.4993 51.5489 12.6899C51.859 11.8804 52.3334 11.1439 52.9421 10.5268C53.5508 9.90964 54.2806 9.42524 55.0857 9.10394C55.8908 8.78274 56.7537 8.63154 57.6201 8.66014C61.6201 8.66014 63.6201 12.0401 63.6201 15.4201V16.0801H54.0001C54.3801 18.2401 56.2501 19.4601 58.7901 19.4601C60.2009 19.4507 61.5829 19.0603 62.7901 18.3301V20.6801C61.4132 21.5376 59.8109 21.9626 58.1901 21.9001C54.2401 21.8901 51.1401 19.2701 51.1401 15.2301ZM60.8101 13.9201C60.7988 13.5055 60.7041 13.0973 60.5317 12.72C60.3594 12.3427 60.1128 12.004 59.8067 11.7241C59.5006 11.4441 59.1413 11.2287 58.7502 11.0905C58.359 10.9524 57.9441 10.8944 57.5301 10.9201C56.6737 10.8648 55.83 11.1484 55.1808 11.7096C54.5317 12.2709 54.1291 13.0648 54.0601 13.9201H60.8101ZM66.0601 8.94014H68.8801V13.8201H75.2601V8.94014H78.0801V21.5201H75.2601V16.2601H68.8801V21.5201H66.0601V8.94014ZM80.4201 15.2301C80.3791 14.3642 80.5191 13.4993 80.8291 12.6899C81.1391 11.8804 81.6131 11.1439 82.2221 10.5268C82.8311 9.90964 83.5611 9.42524 84.3661 9.10394C85.1711 8.78274 86.0341 8.63154 86.9001 8.66014C90.9001 8.66014 92.9001 12.0401 92.9001 15.4201V16.0801H83.2301C83.6101 18.2401 85.4801 19.4601 88.0201 19.4601C89.4311 19.4507 90.8131 19.0603 92.0201 18.3301V20.6801C90.6431 21.5376 89.0411 21.9626 87.4201 21.9001C83.5201 21.8901 80.4201 19.2701 80.4201 15.2301ZM90.0901 13.9201C90.0791 13.5055 89.9841 13.0973 89.8121 12.72C89.6391 12.3427 89.3931 12.004 89.0871 11.7241C88.7811 11.4441 88.4211 11.2287 88.0301 11.0905C87.6391 10.9524 87.2241 10.8944 86.8101 10.9201C85.9541 10.8648 85.1101 11.1484 84.4611 11.7096C83.8121 12.2709 83.4091 13.0648 83.3401 13.9201H90.0901ZM94.5001 15.2301C94.4951 14.342 94.6711 13.4622 95.0171 12.6443C95.3631 11.8264 95.8721 11.0876 96.5131 10.4728C97.1541 9.85814 97.9131 9.38034 98.7451 9.06864C99.5761 8.75704 100.463 8.61804 101.35 8.66014C102.65 8.62764 103.938 8.91614 105.1 9.50014V11.8501C104.059 11.2981 102.898 11.0097 101.72 11.0101C101.144 10.979 100.568 11.0648 100.027 11.2623C99.4851 11.4598 98.9891 11.7649 98.5691 12.1592C98.1481 12.5535 97.8121 13.0289 97.5801 13.5567C97.3481 14.0844 97.2261 14.6537 97.2201 15.2301C97.2191 15.8086 97.3361 16.3813 97.5661 16.9124C97.7951 17.4436 98.1311 17.9219 98.5531 18.3176C98.9751 18.7134 99.4741 19.0181 100.019 19.213C100.564 19.4078 101.143 19.4885 101.72 19.4501C102.977 19.4984 104.22 19.1712 105.29 18.5101V20.8601C104.066 21.535 102.688 21.8797 101.29 21.8601C100.405 21.887 99.5231 21.7351 98.6971 21.4135C97.8721 21.0918 97.1201 20.6071 96.4861 19.9882C95.8521 19.3693 95.3501 18.629 95.0081 17.8114C94.6671 16.9939 94.4941 16.116 94.5001 15.2301ZM106.7 15.2301C106.695 14.342 106.871 13.4622 107.217 12.6443C107.563 11.8264 108.072 11.0876 108.713 10.4728C109.354 9.85814 110.113 9.38034 110.945 9.06864C111.776 8.75704 112.663 8.61804 113.55 8.66014C114.85 8.62764 116.138 8.91614 117.3 9.50014V11.8501C116.259 11.2981 115.098 11.0097 113.92 11.0101C113.344 10.979 112.768 11.0648 112.227 11.2623C111.685 11.4598 111.189 11.7649 110.769 12.1592C110.348 12.5535 110.012 13.0289 109.78 13.5567C109.548 14.0844 109.426 14.6537 109.42 15.2301C109.419 15.8086 109.536 16.3813 109.766 16.9124C109.995 17.4436 110.331 17.9219 110.753 18.3176C111.175 18.7134 111.674 19.0181 112.219 19.213C112.764 19.4078 113.343 19.4885 113.92 19.4501C115.177 19.4984 116.42 19.1712 117.49 18.5101V20.8601C116.266 21.535 114.888 21.8797 113.49 21.8601C112.607 21.8787 111.728 21.7211 110.907 21.3965C110.085 21.0719 109.336 20.5868 108.704 19.9696C108.072 19.3523 107.569 18.6153 107.225 17.8015C106.881 16.9878 106.702 16.1136 106.7 15.2301ZM132.88 19.1701V21.2301C132.395 21.5096 131.839 21.6416 131.28 21.6101C130.705 21.6564 130.131 21.5054 129.652 21.1818C129.174 20.8582 128.821 20.3815 128.65 19.8301C128.073 20.4756 127.363 20.9886 126.569 21.3339C125.775 21.6791 124.916 21.8484 124.05 21.8301C121.42 21.8301 119.36 20.3301 119.36 17.6101C119.36 14.8901 121.42 13.9501 124.15 13.9501H128.47V13.7601C128.47 11.6001 126.69 11.0401 124.81 11.0401C123.422 11.0745 122.065 11.4635 120.87 12.1701V9.70014C122.298 8.99534 123.878 8.65194 125.47 8.70014C128.85 8.70014 131.29 10.3001 131.29 13.4901V18.1801C131.273 18.3262 131.286 18.4742 131.328 18.6153C131.37 18.7563 131.439 18.8876 131.532 19.0014C131.625 19.1151 131.741 19.209 131.871 19.2775C132.001 19.346 132.143 19.3877 132.29 19.4001C132.505 19.3818 132.71 19.3019 132.88 19.1701ZM128.28 16.0701H125C123.22 16.0701 122 16.4501 122 17.6701C122 19.0801 123.22 19.5501 124.72 19.5501C125.385 19.55 126.043 19.4173 126.656 19.1597C127.269 18.9022 127.825 18.5249 128.29 18.0501L128.28 16.0701ZM134.85 8.94014H137.67V13.8201H144V8.94014H146.82V21.5201H144V16.2601H137.62V21.5201H134.8L134.85 8.94014ZM149.21 15.2301C149.205 14.342 149.381 13.4622 149.727 12.6443C150.073 11.8264 150.582 11.0876 151.223 10.4728C151.864 9.85814 152.623 9.38034 153.455 9.06864C154.286 8.75704 155.173 8.61804 156.06 8.66014C157.36 8.62764 158.648 8.91614 159.81 9.50014V11.8501C158.769 11.2981 157.608 11.0097 156.43 11.0101C155.854 10.979 155.278 11.0648 154.737 11.2623C154.195 11.4598 153.699 11.7649 153.279 12.1592C152.858 12.5535 152.522 13.0289 152.29 13.5567C152.058 14.0844 151.936 14.6537 151.93 15.2301C151.929 15.8086 152.046 16.3813 152.276 16.9124C152.505 17.4436 152.841 17.9219 153.263 18.3176C153.685 18.7134 154.184 19.0181 154.729 19.213C155.274 19.4078 155.853 19.4885 156.43 19.4501C157.687 19.4984 158.93 19.1712 160 18.5101V20.8601C158.776 21.535 157.398 21.8797 156 21.8601C155.115 21.887 154.233 21.7351 153.407 21.4135C152.582 21.0918 151.83 20.6071 151.196 19.9882C150.562 19.3693 150.06 18.629 149.718 17.8114C149.377 16.9939 149.204 16.116 149.21 15.2301ZM36.6001 28.2801H37.9101V30.7201L40.1601 28.2801H41.7601L39.1301 31.1001L42.2301 34.4801H40.6301L38.0001 31.6501V34.4701H36.6001V28.2801ZM43.9201 28.2801H46.6401C46.912 28.2356 47.1903 28.2507 47.4557 28.3244C47.7212 28.3981 47.9674 28.5287 48.1774 28.7071C48.3874 28.8854 48.556 29.1073 48.6717 29.3574C48.7874 29.6074 48.8473 29.8796 48.8473 30.1551C48.8473 30.4306 48.7874 30.7028 48.6717 30.9528C48.556 31.2029 48.3874 31.4248 48.1774 31.6032C47.9674 31.7815 47.7212 31.9121 47.4557 31.9858C47.1903 32.0595 46.912 32.0746 46.6401 32.0301H45.2301V34.4701H43.9201V28.2801ZM46.5501 30.9101C47.1101 30.9101 47.4901 30.6301 47.4901 30.1601C47.4901 29.6901 47.1101 29.4101 46.5501 29.4101H45.2301V30.9101H46.5501ZM50.6701 28.2801H55.1701V29.4001H51.8901V30.6201H54.5201V31.7501H51.8901V33.3501H55.3601V34.4801H50.6701V28.2801ZM57.0601 33.3401H57.6201C58.2918 32.12 58.5842 30.7273 58.4601 29.3401V28.4001H62.7801V33.4701H63.6201V35.9101H62.4001V34.6601H58.1801V35.8801H57.0001V33.3401H57.0601ZM61.5601 33.3401V29.4001H59.7801C59.8364 30.745 59.6116 32.0869 59.1201 33.3401H61.5601ZM65.6001 28.2801H66.9101V32.2801L69.9101 28.2801H71.0001V34.4701H69.8201V30.4701L66.6301 34.4701H65.6301L65.6001 28.2801ZM78.0001 28.2801V29.4001H76.0001V34.4701H74.7001V29.4001H72.7001V28.2801H78.0001Z"
        fill="#323E48"></path>
    <path
        d="M4 28.2801H0V10.9101C0.0158 8.05332 1.1576 5.31792 3.1777 3.29782C5.1978 1.27773 7.9332 0.135867 10.79 0.120117H24.12V10.8201C24.12 13.6818 22.9832 16.4263 20.9597 18.4498C18.9362 20.4733 16.1917 21.6101 13.33 21.6101H6.57L8.07 17.6101H13.23C14.1222 17.6154 15.0066 17.4433 15.8317 17.1037C16.6568 16.7641 17.4061 16.2639 18.0361 15.632C18.6661 15.0002 19.1641 14.2494 19.5013 13.4233C19.8384 12.5972 20.008 11.7123 20 10.8201V4.16012H10.7C9.8112 4.15612 8.9303 4.32832 8.1084 4.66662C7.2864 5.00492 6.5396 5.50272 5.9111 6.13122C5.2826 6.75972 4.7848 7.50652 4.4465 8.32852C4.1082 9.15042 3.936 10.0312 3.94 10.9201V28.2801H4Z"
        fill="url(#paint0_radial_261:978)"></path>
    <defs>
        <radialGradient id="paint0_radial_261:978" cx="0" cy="0" r="1" gradientUnits="userSpaceOnUse"
            gradientTransform="translate(0.81 27.1401) scale(23.35)">
            <stop stop-color="#D6005E"></stop>
            <stop offset="1" stop-color="#E3448A"></stop>
        </radialGradient>
    </defs>
</svg>