<svg width="181" height="34" viewBox="0 0 181 34" fill="none" xmlns="http://www.w3.org/2000/svg">
<path d="M42.3598 5.94047H38.5298C38.7998 6.25047 38.8398 6.53047 38.8398 7.20047V15.0005C38.9007 15.4446 38.7898 15.8953 38.5298 16.2605H41.4098C41.1398 15.9405 41.0998 15.6805 41.0998 15.0005V13.0005H42.3998C45.0598 13.0005 46.7198 11.6505 46.7198 9.35047C46.7198 7.05047 45.0998 5.94047 42.3598 5.94047ZM41.9998 11.7405H40.9998V7.11047H41.9998C42.3169 7.06797 42.6395 7.09667 42.944 7.19467C43.2486 7.29257 43.5274 7.45727 43.7602 7.67667C43.9931 7.89607 44.174 8.16467 44.2898 8.46287C44.4057 8.76117 44.4535 9.08147 44.4298 9.40047C44.4521 9.72137 44.4038 10.0432 44.2883 10.3434C44.1727 10.6435 43.9928 10.9147 43.7611 11.1378C43.5294 11.3609 43.2517 11.5305 42.9473 11.6346C42.643 11.7388 42.3196 11.7749 41.9998 11.7405ZM51.1798 16.0605L47.9998 8.87047C47.7937 8.32587 47.4885 7.82407 47.0998 7.39047H50.2498C50.1495 7.61727 50.0977 7.86247 50.0977 8.11047C50.0977 8.35847 50.1495 8.60367 50.2498 8.83047L52.2498 13.5105L54.0098 8.74047C54.0986 8.52647 54.1444 8.29717 54.1444 8.06547C54.1444 7.83377 54.0986 7.60437 54.0098 7.39047H56.2198C55.8557 7.74877 55.5934 8.19737 55.4598 8.69047L52.9798 15.2205C52.3098 16.9805 51.4898 18.5505 49.3798 18.5505C48.4828 18.583 47.6092 18.2595 46.9498 17.6505L47.5398 16.3905C47.7291 16.7064 47.9996 16.9659 48.3232 17.1418C48.6469 17.3176 49.0117 17.4035 49.3798 17.3905C50.2298 17.4605 50.8198 17.0005 51.2198 16.0705L51.1798 16.0605ZM60.4998 16.3805C58.1598 16.3805 56.2698 14.9005 56.2698 11.7905C56.2492 11.1645 56.3595 10.541 56.5936 9.95997C56.8278 9.37907 57.1806 8.85337 57.6296 8.41657C58.0786 7.97977 58.6139 7.64157 59.2011 7.42357C59.7883 7.20557 60.4146 7.11257 61.0398 7.15047C62.2098 7.15047 62.8898 7.42047 63.4698 7.42047C63.7347 7.42957 63.9972 7.36747 64.2298 7.24047L63.3798 9.24047C63.1025 8.93037 62.7637 8.68127 62.3849 8.50917C62.0062 8.33697 61.5958 8.24547 61.1798 8.24047C59.5198 8.24047 58.5198 9.68047 58.5198 11.8405C58.5198 14.0005 59.2898 15.2205 61.0398 15.2205C61.5782 15.2303 62.1113 15.1131 62.596 14.8786C63.0807 14.6441 63.5034 14.2987 63.8298 13.8705L64.2298 14.8705C63.759 15.387 63.1791 15.7923 62.5322 16.057C61.8853 16.3216 61.1877 16.4389 60.4898 16.4005L60.4998 16.3805ZM68.9098 16.3805C66.5698 16.3805 64.6798 14.9005 64.6798 11.7905C64.6592 11.1645 64.7695 10.541 65.0036 9.95997C65.2378 9.37907 65.5906 8.85337 66.0396 8.41657C66.4886 7.97977 67.0239 7.64157 67.6111 7.42357C68.1983 7.20557 68.8246 7.11257 69.4498 7.15047C70.6198 7.15047 71.2998 7.42047 71.8798 7.42047C72.1447 7.42957 72.4072 7.36747 72.6398 7.24047L71.8298 9.24047C71.5525 8.93037 71.2137 8.68127 70.8349 8.50917C70.4562 8.33697 70.0458 8.24547 69.6298 8.24047C67.9998 8.23047 66.9998 9.68047 66.9998 11.8305C66.9998 13.9805 67.7598 15.2105 69.5198 15.2105C70.0582 15.2203 70.5913 15.1031 71.076 14.8686C71.5607 14.6341 71.9834 14.2887 72.3098 13.8605L72.7098 14.8605C72.2343 15.3621 71.6577 15.7571 71.0181 16.0191C70.3785 16.2811 69.6906 16.4043 68.9998 16.3805H68.9098ZM76.1998 11.7005L79.2598 8.50047C79.7998 7.96047 79.8498 7.73047 79.8498 7.33047H82.5998C82.0213 7.70887 81.4849 8.14807 80.9998 8.64047L78.3498 11.2905L81.2298 14.8005C81.6613 15.3755 82.1973 15.8641 82.8098 16.2405H79.3498C79.3633 16.0544 79.3344 15.8676 79.2651 15.6944C79.1958 15.5211 79.088 15.3659 78.9498 15.2405L76.1998 11.8805V15.0005C76.1325 15.445 76.2439 15.898 76.5098 16.2605H73.7198C73.9693 15.8911 74.0694 15.4408 73.9998 15.0005V8.60047C74.0671 8.15597 73.9557 7.70297 73.6898 7.34047H76.4798C76.2198 7.70567 76.1089 8.15627 76.1698 8.60047V11.7005H76.1998ZM89.6998 8.60047C89.7671 8.15597 89.6557 7.70297 89.3898 7.34047H92.1798C91.9198 7.70567 91.8088 8.15627 91.8698 8.60047V15.0005C91.8028 15.445 91.9138 15.898 92.1798 16.2605H89.3798C89.6434 15.8967 89.7578 15.4459 89.6998 15.0005V10.6605L85.9198 14.6605V15.0005C85.8525 15.445 85.9639 15.898 86.2298 16.2605H83.4398C83.7034 15.8967 83.8178 15.4459 83.7598 15.0005V8.60047C83.8271 8.15597 83.7157 7.70297 83.4498 7.34047H86.2398C85.9798 7.70567 85.8689 8.15627 85.9298 8.60047V12.9205L89.7098 8.92047L89.6998 8.60047ZM99.9998 8.60047C100.067 8.15597 99.9558 7.70297 99.6898 7.34047H102.48C102.22 7.70567 102.109 8.15627 102.17 8.60047V15.0005C102.103 15.445 102.214 15.898 102.48 16.2605H99.6898C99.9498 15.8953 100.061 15.4446 99.9998 15.0005V10.6605L96.2198 14.6605V15.0005C96.1528 15.445 96.2638 15.898 96.5298 16.2605H93.7398C93.9998 15.8953 94.1108 15.4446 94.0498 15.0005V8.60047C94.1168 8.15597 94.0058 7.70297 93.7398 7.34047H96.5298C96.2698 7.70567 96.1588 8.15627 96.2198 8.60047V12.9205L99.9998 8.92047V8.60047ZM97.6598 4.73047C97.5058 4.94157 97.4128 5.19047 97.3898 5.45047C97.3898 5.72047 97.5698 5.99047 98.1498 5.99047C98.7298 5.99047 98.9098 5.68047 98.9098 5.45047C98.9018 5.18717 98.8068 4.93397 98.6398 4.73047H99.4898C99.6718 4.97857 99.7788 5.27347 99.7998 5.58047C99.7998 6.30047 99.1198 6.71047 98.0898 6.71047C97.0598 6.71047 96.3798 6.31047 96.3798 5.59047C96.3858 5.42907 96.4238 5.27047 96.4928 5.12437C96.5608 4.97817 96.6588 4.84757 96.7798 4.74047H97.6398L97.6598 4.73047ZM116.06 8.11047C115.725 7.74007 115.316 7.44447 114.86 7.24287C114.403 7.04127 113.909 6.93827 113.41 6.94047C111.34 6.94047 110.12 8.56047 110.12 11.1305C110.12 13.7005 111.02 15.2305 113.45 15.2305C114.022 15.2081 114.583 15.0688 115.099 14.8211C115.615 14.5734 116.075 14.2227 116.45 13.7905L117.03 14.7905C116.487 15.3433 115.833 15.7738 115.11 16.0532C114.387 16.3326 113.613 16.4544 112.84 16.4105C109.69 16.4105 107.71 14.5205 107.71 11.1905C107.69 10.4704 107.819 9.75387 108.089 9.08627C108.36 8.41857 108.766 7.81427 109.282 7.31157C109.798 6.80877 110.412 6.41847 111.087 6.16527C111.761 5.91207 112.481 5.80147 113.2 5.84047C114.64 5.84047 115.2 6.11047 116.13 6.11047C116.531 6.13687 116.929 6.02767 117.26 5.80047L116.06 8.11047Z" fill="#414042"/>
<path d="M118.85 8.50005C118.152 8.42445 117.448 8.58265 116.85 8.95005L117.57 7.38005H125.62L124.93 9.00005C124.766 8.83625 124.569 8.71095 124.351 8.63315C124.133 8.55525 123.9 8.52695 123.67 8.55005H122.23V14.99C122.166 15.4358 122.281 15.889 122.55 16.25H119.76C120.024 15.8862 120.138 15.4354 120.08 14.99V8.50005H118.85ZM134.2 16.24C133.786 15.8776 133.475 15.4117 133.3 14.89L130.1 7.37005H127.58C127.854 7.61175 128.084 7.89945 128.26 8.22005L125.38 14.88C125.165 15.3698 124.879 15.8248 124.53 16.23H126.69C126.42 15.69 126.51 15.46 126.69 14.79L126.87 14.25H130.79L130.97 14.79C131.15 15.47 131.29 15.69 130.97 16.23L134.2 16.24ZM127.36 13.18L128.93 9.45005L130.37 13.18H127.36ZM141.18 12.18H137.4V14.93C137.336 15.3758 137.451 15.829 137.72 16.19H134.93C135.194 15.8262 135.308 15.3755 135.25 14.93V8.55005C135.314 8.10425 135.199 7.65105 134.93 7.29005H137.72C137.456 7.65385 137.342 8.10465 137.4 8.55005V11H141.18V8.55005C141.244 8.10425 141.129 7.65105 140.86 7.29005H143.65C143.386 7.65385 143.272 8.10465 143.33 8.55005V14.94C143.266 15.3858 143.381 15.839 143.65 16.2H140.86C141.124 15.8362 141.238 15.3855 141.18 14.94V12.18ZM152.52 14.18V8.65005C152.462 8.20465 152.576 7.75385 152.84 7.39005H145.84C146.11 7.71005 146.16 7.97005 146.16 8.65005V12.16C146.16 13.78 145.89 15.04 144.27 15.63V17.2C144.908 16.6155 145.744 16.294 146.61 16.3H151.24C152.102 16.3152 152.93 16.6339 153.58 17.2V15.62C153.255 15.5567 152.965 15.3736 152.769 15.1068C152.573 14.8401 152.484 14.5092 152.52 14.18ZM150.45 14.67C150.45 14.7894 150.403 14.9038 150.318 14.9882C150.234 15.0726 150.119 15.12 150 15.12H147C147.542 14.2632 147.778 13.2481 147.67 12.24V8.91005C147.662 8.84905 147.668 8.78685 147.687 8.72855C147.707 8.67015 147.74 8.61715 147.784 8.57365C147.827 8.53005 147.88 8.49715 147.938 8.47745C147.997 8.45775 148.059 8.45175 148.12 8.46005H150.46L150.45 14.67ZM163.95 16.24C163.536 15.8776 163.225 15.4117 163.05 14.89L159.85 7.38005H157.33C157.604 7.62175 157.834 7.90945 158.01 8.23005L155.13 14.89C154.915 15.3798 154.629 15.8348 154.28 16.24H156.44C156.17 15.7 156.26 15.47 156.44 14.8L156.62 14.26H160.45L160.72 14.8C160.9 15.48 161.04 15.7 160.72 16.24H163.95ZM157.07 13.18L158.64 9.45005L160.08 13.18H157.07ZM168.07 7.38005H164.47C164.74 7.70005 164.79 7.96005 164.79 8.64005V15.03C164.848 15.4755 164.734 15.9262 164.47 16.29H167.26C166.99 15.97 166.94 15.71 166.94 15.03V13.59H168C170.47 13.59 172 12.33 172 10.39C172 8.45005 170.7 7.38005 168 7.38005H168.07ZM167.75 12.51H167V8.51005H167.77C169.21 8.51005 169.93 9.09005 169.93 10.51C169.93 11.93 169.16 12.51 167.73 12.51H167.75ZM41.81 24.21H41V21.78H43.16C43.3872 21.7517 43.6179 21.7737 43.8357 21.8446C44.0535 21.9154 44.2529 22.0334 44.42 22.19L45.09 20.71H38.58C38.85 21.03 38.89 21.29 38.89 21.97V28.36C38.9509 28.8042 38.84 29.2548 38.58 29.62H41.87C43.94 29.62 45.51 28.95 45.51 26.96C45.51 24.97 43.93 24.21 41.81 24.21ZM41.58 28.48H40.91V25.2H41.58C42.71 25.2 43.42 25.65 43.42 26.82C43.42 27.99 42.67 28.48 41.59 28.48H41.58ZM55.71 29.61C55.2958 29.2476 54.9853 28.7817 54.81 28.26L51.62 20.74H49.11C49.3852 20.9847 49.6153 21.2758 49.79 21.6L46.9 28.26C46.6701 28.753 46.3666 29.2082 46 29.61H48.16C47.89 29.07 47.98 28.85 48.16 28.17L48.34 27.63H52.17L52.44 28.17C52.62 28.85 52.75 29.07 52.44 29.61H55.71ZM48.87 26.55L50.36 22.82L51.84 26.55H48.87ZM62.87 25.55H59.14V28.3C59.0727 28.7445 59.1841 29.1975 59.45 29.56H56.67C56.9371 29.1977 57.0552 28.7467 57 28.3V21.92C57.0673 21.4755 56.9559 21.0225 56.69 20.66H59.48C59.22 21.0252 59.1091 21.4758 59.17 21.92V24.4H62.95V21.92C63.0173 21.4755 62.9059 21.0225 62.64 20.66H65.4C65.14 21.0252 65.0291 21.4758 65.09 21.92V28.31C65.0227 28.7545 65.1341 29.2075 65.4 29.57H62.61C62.87 29.2048 62.9809 28.7542 62.92 28.31L62.87 25.55ZM69.62 25.06L72.68 21.87C73.22 21.33 73.27 21.1 73.27 20.7H76.02C75.4664 21.0792 74.9537 21.5149 74.49 22L71.79 24.66L74.67 28.17C75.1015 28.745 75.6375 29.2336 76.25 29.61H72.78C72.7935 29.4239 72.7646 29.2371 72.6953 29.0639C72.626 28.8906 72.5182 28.7354 72.38 28.61L69.63 25.28V28.4C69.5627 28.8445 69.6741 29.2975 69.94 29.66H67.15C67.41 29.2948 67.5209 28.8442 67.46 28.4V22C67.5273 21.5555 67.4159 21.1025 67.15 20.74H69.94C69.68 21.1052 69.5691 21.5558 69.63 22L69.67 25.07L69.62 25.06ZM174.25 8.50005C173.552 8.42445 172.848 8.58265 172.25 8.95005L172.97 7.38005H180.97L180.28 9.00005C180.116 8.82855 179.916 8.69495 179.695 8.60855C179.474 8.52225 179.237 8.48515 179 8.50005H177.56V14.94C177.496 15.3858 177.611 15.839 177.88 16.2H175.13C175.394 15.8362 175.508 15.3855 175.45 14.94V8.50005H174.25ZM17.52 4.83827e-05C14.251 -0.00786162 11.0531 0.954288 8.33106 2.76475C5.60906 4.57515 3.48546 7.15245 2.22896 10.1703C0.97248 13.1882 0.639621 16.5111 1.27256 19.7183C1.90546 22.9255 3.47566 25.8728 5.78436 28.1872C8.09316 30.5016 11.0367 32.0789 14.2424 32.7197C17.448 33.3604 20.7717 33.0355 23.7927 31.7863C26.8136 30.5371 29.3961 28.4198 31.2131 25.7022C33.0301 22.9846 34 19.7891 34 16.52C34.0026 14.3532 33.5784 12.2071 32.7517 10.2042C31.9249 8.20135 30.7117 6.38095 29.1814 4.84695C27.6511 3.31295 25.8336 2.09535 23.8328 1.26369C21.8319 0.432059 19.6868 0.00267838 17.52 4.83827e-05ZM17.52 31.32C14.5968 31.316 11.7404 30.4453 9.31206 28.818C6.88366 27.1907 4.99236 24.8798 3.87736 22.1776C2.76236 19.4754 2.47376 16.5032 3.04786 13.637C3.62206 10.7707 5.03326 8.13915 7.10306 6.07485C9.17286 4.01065 11.8084 2.60655 14.6762 2.04015C17.544 1.47376 20.5154 1.77047 23.2145 2.89275C25.9137 4.01515 28.2195 5.91265 29.8402 8.34535C31.461 10.7781 32.324 13.6368 32.32 16.56C32.3174 18.5009 31.9325 20.4224 31.1873 22.2145C30.4421 24.0067 29.3512 25.6346 27.9769 27.0052C26.6026 28.3758 24.9718 29.4623 23.1776 30.2026C21.3834 30.9429 19.4609 31.3226 17.52 31.32Z" fill="#414042"/>
<path d="M21.16 22.3696C22.51 23.8496 22.33 26.5996 21.88 27.8596C21.8711 27.9149 21.8505 27.9676 21.8194 28.0142C21.7884 28.0608 21.7476 28.1003 21.7 28.1297C20.93 28.3997 19.99 28.5796 19.54 28.7096C20.4156 27.9378 21.0385 26.9202 21.3274 25.7894C21.6164 24.6585 21.558 23.4669 21.16 22.3696ZM28.9 20.6096C27.1492 19.092 25.0445 18.0397 22.78 17.5496C25.0552 18.6802 26.8911 20.5337 28 22.8196C28.3898 22.1827 28.7243 21.5136 29 20.8196C29 20.7396 29 20.6996 28.9 20.6096ZM29.84 16.5596C29.8614 16.5015 29.8614 16.4377 29.84 16.3796C29.1683 16.0899 28.4765 15.8492 27.77 15.6596C28.0771 15.4871 28.3168 15.2157 28.45 14.8896C27.7197 15.241 26.9204 15.4255 26.11 15.4296C27.4853 15.9739 28.7726 16.7186 29.93 17.6396C29.8347 17.288 29.8042 16.9221 29.84 16.5596Z" fill="#414042"/>
<path d="M23.1402 20.9305C23.6211 21.0871 24.1393 21.0871 24.6202 20.9305C22.6202 20.3905 21.4702 17.5605 16.8802 17.1505C16.7002 17.1505 16.2102 17.1505 16.4702 16.7405C17.1034 16.0922 17.8003 15.5093 18.5502 15.0005C18.2302 15.0005 16.6602 15.1305 16.2102 15.1805C15.7602 15.2305 15.6302 15.1805 15.6302 14.7705C15.6302 14.7705 14.7302 15.6305 15.1802 16.0805C15.3568 16.13 15.5436 16.13 15.7202 16.0805C15.9002 16.0805 16.3002 15.9005 16.5802 15.8105C16.3969 16.0462 16.2456 16.3051 16.1302 16.5805C16.1302 16.8505 16.0002 16.9905 16.4502 17.1205C17.8107 17.5301 19.1068 18.1293 20.3002 18.9005C21.6101 19.7032 22.6858 20.8363 23.4195 22.186C24.1531 23.5358 24.5189 25.0547 24.4802 26.5905C25.097 26.1485 25.6848 25.6675 26.2402 25.1505V24.8805C25.5408 23.3329 24.4772 21.9776 23.1402 20.9305Z" fill="#414042"/>
<path d="M28.2698 11.0002C27.9998 10.8202 26.6898 10.0002 26.3798 9.83016C26.1075 9.70166 25.8779 9.49766 25.7183 9.24236C25.5587 8.98706 25.476 8.69126 25.4798 8.39016C25.4798 7.54016 25.0298 6.39016 23.4098 5.02016C23.3864 5.15246 23.3864 5.28786 23.4098 5.42016C22.9296 4.98376 22.3376 4.68956 21.6998 4.57016C21.6998 4.57016 21.8298 4.03016 21.8798 3.72016C21.9298 3.41016 21.6998 3.13016 21.1998 3.41016C19.1998 4.26016 15.9798 4.26016 12.5998 7.50016C13.0496 6.41396 13.7606 5.45556 14.6698 4.71016C13.8126 4.89486 12.9801 5.18016 12.1898 5.56016C11.9478 5.67956 11.7462 5.86736 11.6098 6.10016C10.3772 7.99346 9.5498 10.1215 9.1798 12.3502C8.9686 10.7505 8.9686 9.12986 9.1798 7.53016C8.517 8.11196 7.914 8.75846 7.3798 9.46016C7.1686 9.69166 7.0572 9.99706 7.0698 10.3102C7.0788 12.6645 7.5689 14.9921 8.5098 17.1502C7.2427 15.8874 6.2875 14.3466 5.7198 12.6502C5.385 13.6734 5.1604 14.7293 5.0498 15.8002C5.0558 16.2505 5.195 16.6889 5.4498 17.0602C6.7992 19.373 8.7432 21.2824 11.0798 22.5902C9.7298 22.4602 6.8498 20.8802 5.4598 19.7102C5.7176 20.7568 6.111 21.7654 6.6298 22.7102C6.8098 23.1202 7.0298 23.2902 7.6298 23.6102C9.9219 24.8904 12.5277 25.5002 15.1498 25.3702C13.1554 26.0805 10.9967 26.1917 8.93981 25.6902C9.29941 26.0575 9.69101 26.3922 10.1098 26.6902C11.0329 27.3717 12.1065 27.821 13.2398 28.0002C15.8998 28.5402 19.1798 26.6502 18.3698 23.0902C18.2276 23.3994 18.0226 23.6755 17.7678 23.9011C17.513 24.1266 17.2139 24.2966 16.8898 24.4002C18.1998 23.0902 18.0598 21.0202 15.7698 20.7602C14.811 20.6917 13.8486 20.6917 12.8898 20.7602C12.6179 20.7946 12.3418 20.7635 12.0843 20.6696C11.8269 20.5757 11.5956 20.4216 11.4098 20.2202C11.8465 20.1873 12.2806 20.1272 12.7098 20.0402C13.4479 19.7551 14.2219 19.5734 15.0098 19.5002C15.0098 19.3702 14.6898 18.9602 13.6598 19.3702C13.4797 19.4044 13.2938 19.3931 13.1192 19.3372C12.9445 19.2813 12.7866 19.1827 12.6598 19.0502C13.6598 19.3202 14.0998 18.1502 15.0898 18.7802C15.2698 18.9102 15.6298 18.9102 15.4998 18.6502C15.4216 18.48 15.2938 18.3375 15.1333 18.2411C14.9727 18.1448 14.7867 18.0991 14.5998 18.1102C13.6324 17.9573 12.642 18.0501 11.7198 18.3802C11.3099 18.5791 10.9323 18.8387 10.5998 19.1502C10.5278 18.243 10.803 17.3422 11.3698 16.6302C12.3416 16.0271 13.434 15.6447 14.5698 15.5102C14.522 15.405 14.4973 15.2908 14.4973 15.1752C14.4973 15.0596 14.522 14.9454 14.5698 14.8402C14.8898 14.4302 15.8798 13.7202 21.6798 13.7202L21.2298 14.1702C22.4716 14.2666 23.6954 14.5254 24.8698 14.9402C24.9998 14.9402 25.3198 15.0702 25.7298 14.4002C25.8598 14.2202 25.7298 14.2202 25.4098 14.0002C25.427 13.8942 25.427 13.7862 25.4098 13.6802C25.4098 13.5002 25.2798 13.5502 25.2298 13.6802C25.1798 13.8102 24.6498 13.8102 24.5498 13.6802C24.4417 13.469 24.2827 13.2881 24.0871 13.1536C23.8916 13.0192 23.6657 12.9356 23.4298 12.9102C23.6181 12.731 23.8516 12.6066 24.1054 12.5502C24.3591 12.4938 24.6234 12.5076 24.8698 12.5902C24.8698 12.5902 24.8698 12.8602 25.1398 12.7702C25.4098 12.6802 25.4598 12.5002 25.5898 12.7702C25.6122 12.8757 25.6122 12.9847 25.5898 13.0902C25.5898 13.2202 25.5898 13.2702 25.7698 13.0902L26.0898 12.7702C26.3395 12.8548 26.6101 12.8548 26.8598 12.7702C27.091 12.673 27.2944 12.5196 27.4516 12.3241C27.6087 12.1286 27.7146 11.897 27.7598 11.6502C28.1398 11.4702 28.4098 11.0702 28.2698 11.0002ZM17.1498 10.7302C17.399 10.6201 17.6564 10.5298 17.9198 10.4602C18.1898 10.4602 18.3698 10.4602 18.1898 10.6402C17.6098 11.4902 17.6098 13.1102 18.4598 13.4302C17.9337 13.4271 17.4083 13.4706 16.8898 13.5602C16.8488 12.789 16.9094 12.0157 17.0698 11.2602L16.1698 11.6602C16.2263 10.6519 16.5363 9.67416 17.0713 8.81766C17.6062 7.96106 18.3486 7.25336 19.2298 6.76016C18.0827 7.78286 17.344 9.18566 17.1498 10.7102V10.7302ZM20.8798 4.34016C20.6998 4.61016 20.1998 5.19016 20.3398 5.60016C20.0477 5.68766 19.7606 5.79116 19.4798 5.91016C19.2998 6.05016 19.2098 5.91016 19.2998 5.73016C19.5882 5.13376 20.0432 4.63356 20.6098 4.29016C20.9998 4.05016 20.9998 4.23016 20.8898 4.32016L20.8798 4.34016ZM24.6098 8.84016C24.6098 9.11016 24.6098 9.16016 24.2898 9.11016C24.1679 9.04926 24.0356 9.01186 23.8998 9.00016H23.7698C23.917 9.27596 23.9796 9.58896 23.9498 9.90016C23.6671 9.30486 23.2695 8.77126 22.7798 8.33016C23.2208 8.28976 23.6654 8.33386 24.0898 8.46016C24.2698 8.46016 24.4998 8.46016 24.6298 7.69016C24.7688 8.05466 24.7652 8.45816 24.6198 8.82016L24.6098 8.84016Z" fill="#414042"/>
</svg>