<svg width="172" height="30" viewBox="0 0 172 30" fill="none" xmlns="http://www.w3.org/2000/svg">
<path d="M28.9302 0.960938H0V15.7173H28.9302V0.960938Z" fill="#E9041E"/>
<path d="M57.6426 8.184L51.7482 0.9608H54.7329L59.0634 6.2658L62.9884 0.9608H65.9731L57.1519 12.8791H54.1673L57.6426 8.184ZM107.68 12.736H109.857V0.7394H107.588L99.7652 9.7785L99.7072 9.7615C99.8432 7.4957 99.8602 5.6491 99.8602 3.8705V0.7359H97.6832V12.736H99.9352L107.728 3.6934L107.758 3.7104C107.676 5.4889 107.676 8.5894 107.676 9.598V12.736H107.68ZM123.155 5.5673H115.319V0.7257H113.101V12.7087H115.319V7.5162H123.155V12.7087H125.373V0.7257H123.155V5.5673ZM132.382 7.8876H137.019L134.705 3.0017L132.382 7.8876ZM131.452 9.8399L130.068 12.77H127.663L133.516 0.7257H135.867L141.745 12.77H139.329L137.959 9.8399H131.452ZM153.363 5.5673H145.527V0.7257H143.309V12.7087H145.527V7.5162H153.363V12.7087H155.581V0.7257H153.363V5.5673ZM165.598 13.2368C161.608 13.2368 158.603 10.7053 158.603 6.9199C158.603 3.2061 161.659 0.6303 165.598 0.6303C167.946 0.6303 169.632 1.3015 171.138 2.4089L169.966 4.1533C168.869 3.3186 167.482 2.6985 165.656 2.6985C162.753 2.6985 160.934 4.5349 160.934 6.9199C160.934 9.3867 162.76 11.1618 165.694 11.1618C167.513 11.1618 168.964 10.5724 170.061 9.7342L171.234 11.4787C169.731 12.5963 167.949 13.2368 165.598 13.2368ZM72.6988 13.1687C75.0463 13.1687 76.8317 12.5281 78.3376 11.4174L77.1656 9.6729C76.0685 10.5111 74.617 11.1005 72.7976 11.1005C69.8674 11.1005 68.0378 9.3254 68.0378 6.8586C68.0378 4.4736 69.8538 2.6371 72.7601 2.6371C74.5864 2.6371 75.9697 3.2572 77.0702 4.092L78.2422 2.3475C76.7363 1.2402 75.0497 0.569 72.7022 0.569C68.7635 0.569 65.7073 3.1448 65.7073 6.8586C65.7039 10.6371 68.709 13.1687 72.6988 13.1687ZM86.4602 13.2879H88.5962V12.1738C92.1882 11.8365 94.9682 9.6014 94.9682 6.3884C94.9682 3.2164 92.1882 0.9506 88.5962 0.6065V0H86.4602V0.6303C82.9782 1.046 80.2729 3.2845 80.2729 6.3884C80.2729 9.5366 82.9782 11.7411 86.4602 12.1499V13.2879ZM86.4602 2.7121V10.092C84.2593 9.7138 82.9135 8.2555 82.9135 6.3884C82.9169 4.5792 84.3104 3.1073 86.4602 2.7121ZM88.6002 10.1261V2.6746C90.9132 3.0017 92.3372 4.5111 92.3372 6.3884C92.3372 8.3066 90.9132 9.8024 88.6002 10.1261ZM46.5421 0.9608C49.1417 0.9608 50.7806 2.661 50.7806 5.0085C50.7806 7.4617 49.1417 8.8688 46.5421 8.8688H41.3598V12.8722H39.1519V0.9608H46.5421ZM46.6647 6.8961C47.8129 6.8961 48.5216 6.1056 48.5216 5.0392C48.5216 3.8637 47.8129 2.9267 46.5421 2.9267H41.3598V6.8927H46.6647V6.8961Z" fill="black"/>
<path d="M28.9302 15.4277H0V29.8945H28.9302V15.4277Z" fill="black"/>
<path d="M60.1533 17.9561H57.8024L51.9489 30.0004H54.3544L55.7377 27.0703H62.2419L63.6116 30.0004H66.0273L60.1533 17.9561ZM56.6678 25.118L58.9949 20.2321L61.3084 25.118H56.6678ZM91.363 29.9425H94.433L88.048 23.7926L94.334 17.9595H91.264L85.3561 23.4383V17.9561H83.138V29.9425H85.3561V24.382H85.5912L91.363 29.9425ZM77.6525 22.8011H69.8161V17.9561H67.5946V29.9425H69.8161V24.75H77.6525V29.9425H79.8706V17.9561H77.6525V22.8011ZM50.4464 24.0553C49.7207 22.8969 48.3169 22.3654 46.9984 22.3313C45.1449 22.2904 43.288 22.3211 41.4345 22.3177C41.4277 21.4931 41.4311 20.672 41.4209 19.8475C44.2692 19.8304 47.1176 19.8577 49.966 19.8304C49.9626 19.2137 49.9626 18.597 49.9694 17.9804C46.368 17.9497 42.7633 17.9735 39.1551 17.9701C39.1721 21.9429 39.1312 25.919 39.1789 29.8918C41.5231 29.8816 43.8672 29.8952 46.2113 29.8884C47.0495 29.8577 47.9081 29.7896 48.7019 29.4829C49.7514 29.0672 50.627 28.1575 50.8791 27.0366C51.0222 26.0383 51.0154 24.9378 50.4464 24.0553ZM47.1551 27.8475C45.2505 27.9122 43.3425 27.8441 41.4379 27.8781C41.4311 26.6754 41.414 25.4727 41.4481 24.27C43.2778 24.3006 45.1108 24.2427 46.9404 24.2972C47.9251 24.3449 48.9677 25.0775 48.8587 26.1643C48.9439 27.1149 48.0444 27.8407 47.1551 27.8475Z" fill="black"/>
<path d="M23.8773 14.5488H5.05615V16.3103H23.8773V14.5488Z" fill="white"/>
</svg>
