<svg width="22" height="22" viewBox="0 0 22 22" fill="none" xmlns="http://www.w3.org/2000/svg">
<path d="M21 6.31235V15.6876C21.0001 15.7957 20.9682 15.9018 20.9079 15.9949C20.8475 16.0881 20.7608 16.1648 20.6567 16.2172L11.3233 20.924C11.2244 20.9739 11.1131 21 11 21C10.8869 21 10.7756 20.9739 10.6767 20.924L1.34333 16.2172C1.23924 16.1648 1.1525 16.0881 1.09213 15.9949C1.03175 15.9018 0.999942 15.7957 1 15.6876V6.31235C1.00014 6.20446 1.03204 6.09857 1.09241 6.00563C1.15278 5.91269 1.23941 5.8361 1.34333 5.78377L10.6767 1.07595C10.7756 1.02614 10.8869 1 11 1C11.1131 1 11.2244 1.02614 11.3233 1.07595L20.6567 5.78377C20.7606 5.8361 20.8472 5.91269 20.9076 6.00563C20.968 6.09857 20.9999 6.20446 21 6.31235V6.31235Z" stroke="black" stroke-width="1.5" stroke-linecap="round" stroke-linejoin="round"/>
<path d="M10.6567 10.8275L1.99 6.4556C1.88849 6.40449 1.77404 6.37833 1.65797 6.37971C1.5419 6.38108 1.42824 6.40995 1.32823 6.46344C1.22822 6.51694 1.14533 6.59322 1.08776 6.68473C1.0302 6.77624 0.999944 6.87981 1 6.9852V15.6877C0.999942 15.7957 1.03175 15.9018 1.09213 15.995C1.1525 16.0881 1.23924 16.1648 1.34333 16.2172L10.01 20.5881C10.1115 20.6393 10.226 20.6654 10.342 20.664C10.4581 20.6627 10.5718 20.6338 10.6718 20.5803C10.7718 20.5268 10.8547 20.4505 10.9122 20.359C10.9698 20.2675 11.0001 20.1639 11 20.0586V11.3561C10.9999 11.2482 10.968 11.1423 10.9076 11.0494C10.8472 10.9564 10.7606 10.8798 10.6567 10.8275V10.8275Z" fill="black" stroke="black" stroke-width="1.5" stroke-linejoin="round"/>
<path d="M11 11.0875L21 6.04373" stroke="black" stroke-width="1.5" stroke-linecap="round" stroke-linejoin="round"/>
</svg>
