<svg width="32" height="32" viewBox="0 0 32 32" fill="none" xmlns="http://www.w3.org/2000/svg">
<path d="M25.116 20.116C25.2321 19.9999 25.3699 19.9078 25.5216 19.845C25.6733 19.7822 25.8358 19.7498 26 19.7498C26.1642 19.7498 26.3268 19.7822 26.4784 19.845C26.6301 19.9078 26.7679 19.9999 26.884 20.116C27.0001 20.2321 27.0922 20.3699 27.155 20.5216C27.2178 20.6733 27.2502 20.8358 27.2502 21C27.2502 21.1642 27.2178 21.3267 27.155 21.4784C27.0922 21.6301 27.0001 21.7679 26.884 21.884L19.884 28.884C19.7679 29.0001 19.6301 29.0922 19.4784 29.1551C19.3268 29.2179 19.1642 29.2502 19 29.2502C18.8358 29.2502 18.6733 29.2179 18.5216 29.1551C18.3699 29.0922 18.2321 29.0001 18.116 28.884L11.116 21.884C10.8816 21.6495 10.7499 21.3316 10.7499 21C10.7499 20.6684 10.8816 20.3505 11.116 20.116C11.3505 19.8815 11.6685 19.7498 12 19.7498C12.3316 19.7498 12.6496 19.8815 12.884 20.116L17.75 24.982L17.75 16C17.75 10.063 12.937 5.25 7.00002 5.25C6.6685 5.25 6.35056 5.1183 6.11613 4.88388C5.88171 4.64946 5.75002 4.33152 5.75002 4C5.75002 3.66848 5.88171 3.35054 6.11613 3.11612C6.35056 2.8817 6.6685 2.75 7.00002 2.75C14.318 2.75 20.25 8.682 20.25 16L20.25 24.982L25.116 20.116Z" fill="#3E92A3" fill-opacity="0.5"/>
</svg>
