<svg width="20" height="20" viewBox="0 0 20 20" fill="none" xmlns="http://www.w3.org/2000/svg">
<path d="M17.7778 0H2.22222C0.996667 0 0 0.897 0 2V18C0 19.103 0.996667 20 2.22222 20H17.7778C19.0033 20 20 19.103 20 18V2C20 0.897 19.0033 0 17.7778 0ZM2.22222 18V2H17.7778L17.7789 18H2.22222Z" fill="black"/>
<path d="M4.61538 10H6.76923V11.954H4.61538V10ZM4.61538 13.908H6.76923V15.8621H4.61538V13.908ZM8.92308 10H11.0769V11.954H8.92308V10ZM4.61538 4.13793H15.3846V8.04598H4.61538V4.13793ZM8.92308 13.908H11.0769V15.8621H8.92308V13.908ZM13.2308 10H15.3846V15.8621H13.2308V10Z" fill="black"/>
</svg>
