<svg width="20" height="14" viewBox="0 0 20 14" fill="none" xmlns="http://www.w3.org/2000/svg">
<path d="M19.1523 4.94422L15.391 4.36671L13.0988 0.63497C12.9785 0.439644 12.8096 0.278572 12.6085 0.16734C12.4074 0.0561068 12.1809 -0.00152146 11.951 3.05383e-05L2.34437 0.0763099C2.06719 0.0786428 1.79762 0.166961 1.57312 0.328993C1.34862 0.491025 1.18034 0.718724 1.09167 0.980448L0 4.20647V11.6237H2.29192C2.47009 12.2008 2.82924 12.7059 3.31665 13.0647C3.80406 13.4234 4.39405 13.617 5 13.617C5.60595 13.617 6.19593 13.4234 6.68334 13.0647C7.17075 12.7059 7.52991 12.2008 7.70808 11.6237H11.9586C12.1367 12.2008 12.4959 12.7059 12.9833 13.0647C13.4707 13.4234 14.0607 13.617 14.6667 13.617C15.2726 13.617 15.8626 13.4234 16.35 13.0647C16.8374 12.7059 17.1966 12.2008 17.3747 11.6237H20V5.92917C20.0011 5.69087 19.916 5.46016 19.7603 5.27927C19.6047 5.09839 19.3888 4.97945 19.1523 4.94422V4.94422ZM8.66666 1.35483L11.9616 1.32867L13.7991 4.32033L8.66666 4.31854V1.35483ZM2.35504 1.40499L7.33333 1.36546V4.31809L1.37004 4.31597L2.35504 1.40499ZM5 12.288C4.70333 12.288 4.41332 12.2004 4.16664 12.0361C3.91997 11.8718 3.72771 11.6384 3.61418 11.3652C3.50065 11.0921 3.47094 10.7915 3.52882 10.5015C3.5867 10.2116 3.72956 9.94521 3.93934 9.73616C4.14912 9.5271 4.41639 9.38473 4.70736 9.32705C4.99833 9.26937 5.29993 9.29897 5.57402 9.41211C5.84811 9.52525 6.08238 9.71685 6.2472 9.96268C6.41202 10.2085 6.5 10.4975 6.5 10.7932C6.49956 11.1895 6.34138 11.5695 6.06017 11.8497C5.77896 12.13 5.39769 12.2876 5 12.288V12.288ZM14.6667 12.288C14.37 12.288 14.08 12.2004 13.8333 12.0361C13.5866 11.8718 13.3944 11.6384 13.2808 11.3652C13.1673 11.0921 13.1376 10.7915 13.1955 10.5015C13.2534 10.2116 13.3962 9.94521 13.606 9.73616C13.8158 9.5271 14.0831 9.38473 14.374 9.32705C14.665 9.26937 14.9666 9.29897 15.2407 9.41211C15.5148 9.52525 15.749 9.71685 15.9139 9.96268C16.0787 10.2085 16.1667 10.4975 16.1667 10.7932C16.1662 11.1895 16.008 11.5695 15.7268 11.8497C15.4456 12.13 15.0643 12.2876 14.6667 12.288V12.288ZM18.6667 10.2949H17.4549C17.3378 9.64287 16.9943 9.05266 16.4846 8.62755C15.9748 8.20244 15.3313 7.9695 14.6667 7.9695C14.002 7.9695 13.3585 8.20244 12.8488 8.62755C12.339 9.05266 11.9955 9.64287 11.8784 10.2949H7.78825C7.67111 9.64287 7.32763 9.05266 6.8179 8.62755C6.30817 8.20244 5.66467 7.9695 5 7.9695C4.33533 7.9695 3.69182 8.20244 3.1821 8.62755C2.67237 9.05266 2.32888 9.64287 2.21175 10.2949H1.33333V5.64531L15.1052 5.66728L18.6667 6.2141V10.2949Z" fill="black"/>
</svg>
