<svg width="44" height="44" viewBox="0 0 44 44" fill="none" xmlns="http://www.w3.org/2000/svg">
<path d="M5.50001 7.33333C4.52755 7.33333 3.59492 7.71964 2.90729 8.40728C2.21965 9.09491 1.83334 10.0275 1.83334 11V31.1667H5.50001C5.50001 32.6254 6.07947 34.0243 7.11092 35.0558C8.14237 36.0872 9.54132 36.6667 11 36.6667C12.4587 36.6667 13.8576 36.0872 14.8891 35.0558C15.9205 34.0243 16.5 32.6254 16.5 31.1667H27.5C27.5 32.6254 28.0795 34.0243 29.1109 35.0558C30.1424 36.0872 31.5413 36.6667 33 36.6667C34.4587 36.6667 35.8576 36.0872 36.8891 35.0558C37.9205 34.0243 38.5 32.6254 38.5 31.1667H42.1667V22L36.6667 14.6667H31.1667V7.33333M18.3333 11L25.6667 18.3333L18.3333 25.6667V20.1667H7.33334V16.5H18.3333M31.1667 17.4167H35.75L39.3617 22H31.1667M11 28.4167C11.7294 28.4167 12.4288 28.7064 12.9446 29.2221C13.4603 29.7378 13.75 30.4373 13.75 31.1667C13.75 31.896 13.4603 32.5955 12.9446 33.1112C12.4288 33.6269 11.7294 33.9167 11 33.9167C10.2707 33.9167 9.57119 33.6269 9.05547 33.1112C8.53974 32.5955 8.25001 31.896 8.25001 31.1667C8.25001 30.4373 8.53974 29.7378 9.05547 29.2221C9.57119 28.7064 10.2707 28.4167 11 28.4167ZM33 28.4167C33.7294 28.4167 34.4288 28.7064 34.9446 29.2221C35.4603 29.7378 35.75 30.4373 35.75 31.1667C35.75 31.896 35.4603 32.5955 34.9446 33.1112C34.4288 33.6269 33.7294 33.9167 33 33.9167C32.2707 33.9167 31.5712 33.6269 31.0555 33.1112C30.5397 32.5955 30.25 31.896 30.25 31.1667C30.25 30.4373 30.5397 29.7378 31.0555 29.2221C31.5712 28.7064 32.2707 28.4167 33 28.4167Z" fill="black"/>
</svg>
