<svg width="26" height="26" viewBox="0 0 26 26" fill="none" xmlns="http://www.w3.org/2000/svg">
<path d="M13.8748 22.9686L3 13V15.0365C3 15.5762 3.23327 16.0955 3.65537 16.4722L12.3085 24.4043C13.175 25.1986 14.5857 25.1986 15.4521 24.4043L22.3502 18.081C23.2166 17.2868 23.2166 15.9936 22.3502 15.1994L13.8748 22.9686Z" fill="black"/>
<path d="M12.3137 19.3772C12.7472 19.7889 13.314 20 13.8808 20C14.4476 20 15.0144 19.7889 15.4479 19.3772L22.3498 12.8222C23.2167 11.9989 23.2167 10.6583 22.3498 9.835L13.6919 1.61222C13.2806 1.22167 12.7138 1 12.1248 1H5.22284C4.00028 1 3 1.95 3 3.11111V9.66611C3 10.2256 3.2334 10.7639 3.65574 11.1544L12.3137 19.3772ZM5.22284 3.11111H12.1248L20.7827 11.3339L13.8808 17.8889L5.22284 9.66611V3.11111Z" fill="black"/>
<path d="M7.85417 6.95833C8.60205 6.95833 9.20833 6.35205 9.20833 5.60417C9.20833 4.85628 8.60205 4.25 7.85417 4.25C7.10628 4.25 6.5 4.85628 6.5 5.60417C6.5 6.35205 7.10628 6.95833 7.85417 6.95833Z" fill="black"/>
</svg>
