<svg width="26" height="26" viewBox="0 0 26 26" fill="none" xmlns="http://www.w3.org/2000/svg">
<path d="M8.45 2.16667H17.55C21.0167 2.16667 23.8333 4.98333 23.8333 8.45V17.55C23.8333 19.2164 23.1713 20.8146 21.993 21.993C20.8146 23.1713 19.2164 23.8333 17.55 23.8333H8.45C4.98333 23.8333 2.16667 21.0167 2.16667 17.55V8.45C2.16667 6.78356 2.82866 5.18537 4.00701 4.00701C5.18537 2.82866 6.78356 2.16667 8.45 2.16667ZM8.23333 4.33333C7.19899 4.33333 6.20701 4.74423 5.47562 5.47562C4.74423 6.20701 4.33333 7.19899 4.33333 8.23333V17.7667C4.33333 19.9225 6.0775 21.6667 8.23333 21.6667H17.7667C18.801 21.6667 19.793 21.2558 20.5244 20.5244C21.2558 19.793 21.6667 18.801 21.6667 17.7667V8.23333C21.6667 6.0775 19.9225 4.33333 17.7667 4.33333H8.23333ZM18.6875 5.95833C19.0466 5.95833 19.3911 6.101 19.645 6.35496C19.899 6.60892 20.0417 6.95335 20.0417 7.3125C20.0417 7.67165 19.899 8.01608 19.645 8.27004C19.3911 8.524 19.0466 8.66667 18.6875 8.66667C18.3284 8.66667 17.9839 8.524 17.73 8.27004C17.476 8.01608 17.3333 7.67165 17.3333 7.3125C17.3333 6.95335 17.476 6.60892 17.73 6.35496C17.9839 6.101 18.3284 5.95833 18.6875 5.95833ZM13 7.58333C14.4366 7.58333 15.8143 8.15402 16.8302 9.16984C17.846 10.1857 18.4167 11.5634 18.4167 13C18.4167 14.4366 17.846 15.8143 16.8302 16.8302C15.8143 17.846 14.4366 18.4167 13 18.4167C11.5634 18.4167 10.1857 17.846 9.16984 16.8302C8.15402 15.8143 7.58333 14.4366 7.58333 13C7.58333 11.5634 8.15402 10.1857 9.16984 9.16984C10.1857 8.15402 11.5634 7.58333 13 7.58333ZM13 9.75C12.138 9.75 11.3114 10.0924 10.7019 10.7019C10.0924 11.3114 9.75 12.138 9.75 13C9.75 13.862 10.0924 14.6886 10.7019 15.2981C11.3114 15.9076 12.138 16.25 13 16.25C13.862 16.25 14.6886 15.9076 15.2981 15.2981C15.9076 14.6886 16.25 13.862 16.25 13C16.25 12.138 15.9076 11.3114 15.2981 10.7019C14.6886 10.0924 13.862 9.75 13 9.75Z" fill="black"/>
</svg>
