<svg width="20" height="20" viewBox="0 0 20 20" fill="none" xmlns="http://www.w3.org/2000/svg">
<path d="M4.42413 16.3603C4.42413 16.1493 4.34694 15.9667 4.19257 15.8125C4.03819 15.6583 3.85537 15.5813 3.64412 15.5813C3.43287 15.5813 3.25005 15.6583 3.09567 15.8125C2.9413 15.9667 2.86411 16.1493 2.86411 16.3603C2.86411 16.5713 2.9413 16.7539 3.09567 16.9081C3.25005 17.0623 3.43287 17.1394 3.64412 17.1394C3.85537 17.1394 4.03819 17.0623 4.19257 16.9081C4.34694 16.7539 4.42413 16.5713 4.42413 16.3603ZM12.273 11.2477L3.961 19.5496C3.66037 19.8499 3.29474 20 2.86411 20C2.4416 20 2.07191 19.8499 1.75503 19.5496L0.463132 18.2349C0.154377 17.9428 0 17.5776 0 17.1394C0 16.7093 0.154377 16.34 0.463132 16.0316L8.76295 7.74194C9.07983 8.53723 9.54499 9.24123 10.1584 9.85393C10.7719 10.4666 11.4767 10.9312 12.273 11.2477ZM20 5.95253C20 6.26902 19.9066 6.69913 19.7197 7.24285C19.3378 8.33029 18.6695 9.21282 17.7148 9.89044C16.7601 10.5681 15.7099 10.9069 14.5643 10.9069C13.0611 10.9069 11.7753 10.3733 10.7069 9.30615C9.63843 8.23899 9.1042 6.95476 9.1042 5.45344C9.1042 3.95212 9.63843 2.66788 10.7069 1.60073C11.7753 0.533577 13.0611 0 14.5643 0C15.0355 0 15.5291 0.0669507 16.0451 0.200852C16.561 0.334753 16.9978 0.523433 17.3553 0.76689C17.4853 0.856157 17.5503 0.969771 17.5503 1.10773C17.5503 1.24569 17.4853 1.3593 17.3553 1.44857L13.7843 3.50578V6.2325L16.1365 7.535C16.1771 7.51065 16.4981 7.31386 17.0993 6.94461C17.7006 6.57537 18.2511 6.2467 18.7508 5.95861C19.2505 5.67052 19.5369 5.52648 19.61 5.52648C19.7319 5.52648 19.8273 5.56705 19.8964 5.6482C19.9655 5.72936 20 5.8308 20 5.95253Z" fill="black"/>
</svg>
