<svg width="20" height="9" viewBox="0 0 20 9" fill="none" xmlns="http://www.w3.org/2000/svg">
<path d="M19.2857 0H0.714286C0.524845 0 0.343164 0.0741951 0.209209 0.206263C0.0752549 0.338331 0 0.517453 0 0.704225V7.74648C0 7.93325 0.0752549 8.11237 0.209209 8.24444C0.343164 8.37651 0.524845 8.4507 0.714286 8.4507H19.2857C19.4752 8.4507 19.6568 8.37651 19.7908 8.24444C19.9247 8.11237 20 7.93325 20 7.74648V0.704225C20 0.517453 19.9247 0.338331 19.7908 0.206263C19.6568 0.0741951 19.4752 0 19.2857 0ZM18.5714 7.04225H1.42857V1.40845H4.28571V4.22535H5.71429V1.40845H9.28571V4.22535H10.7143V1.40845H14.2857V4.22535H15.7143V1.40845H18.5714V7.04225Z" fill="black"/>
</svg>
