<svg width="44" height="44" viewBox="0 0 44 44" fill="none" xmlns="http://www.w3.org/2000/svg">
<path d="M14.8422 16.9341C14.3057 17.1521 14.9845 17.5328 15.36 17.535C15.5309 17.5576 15.7048 17.5386 15.8665 17.4796C16.0283 17.4206 16.1732 17.3235 16.2885 17.1966C16.4039 17.0697 16.4863 16.9168 16.5286 16.7513C16.571 16.5857 16.5719 16.4124 16.5315 16.2464C16.1954 15.3081 14.6079 14.9307 13.3708 15.2268C11.5873 15.6552 10.8998 17.1141 11.5775 18.2628C12.4665 19.7727 15.1345 20.3411 17.2321 19.7065C19.8422 18.918 20.8078 16.7106 19.6407 14.9806C18.2394 12.9055 14.4842 12.1473 11.5512 13.1171C8.12448 14.2506 6.88187 17.2031 8.53503 19.5015C10.4312 22.1352 15.2681 23.0832 19.02 21.7805C23.2569 20.3107 24.7732 16.6173 22.6372 13.7614C20.256 10.5735 14.3484 9.43778 9.78639 11.0692C4.7481 12.8708 2.96029 17.2964 5.57139 20.7077C8.43212 24.4434 15.4027 25.7645 20.7673 23.8078C26.5993 21.6785 28.6575 16.5251 25.5735 12.566C22.2376 8.28584 14.2116 6.77812 8.05331 9.06031C1.42975 11.5139 -0.896706 17.3907 2.65812 21.8933C4.91889 24.7579 9.22037 26.68 13.9302 27" stroke="black" stroke-width="1.8" stroke-linecap="round" stroke-linejoin="round"/>
<path d="M13.7147 26.4755H43V36H13.6393C6.51132 36 1 31.3552 1 25.2854V16.9521M6.47793 33.9757V31.5953M10.1302 35.4049V30.6422M13.7826 36V33.6197M17.4349 36V31.2372M21.0861 36V33.6197M24.7395 36V31.2372M28.3907 36V33.6197M35.6954 36V33.6197M32.0441 36V31.2372M39.3477 36V31.2372M26.5651 26.3565V16" stroke="black" stroke-width="1.8" stroke-linecap="round" stroke-linejoin="round"/>
</svg>
