<svg width="26" height="26" viewBox="0 0 26 26" fill="none" xmlns="http://www.w3.org/2000/svg">
<path fill-rule="evenodd" clip-rule="evenodd" d="M6.27033 15.1883C6.31688 15.2038 6.36475 15.2151 6.41333 15.2219C6.71983 15.9441 7.02461 16.6671 7.32767 17.3907C7.87258 18.6929 8.42183 20.0341 8.54208 20.4198C8.69267 20.8943 8.85083 21.2171 9.02417 21.4381C9.11408 21.5508 9.217 21.6504 9.33833 21.7263C9.40154 21.7658 9.46917 21.7978 9.53983 21.8216C9.8865 21.9516 10.2028 21.8974 10.4011 21.8313C10.5174 21.7916 10.6281 21.737 10.7304 21.6688L10.7358 21.6667L13.7973 19.7578L17.3344 22.4683C17.3864 22.5084 17.4428 22.542 17.5034 22.5691C17.9281 22.7533 18.3398 22.8183 18.7276 22.7663C19.1133 22.7121 19.4198 22.5507 19.6484 22.3676C19.9109 22.156 20.1201 21.8859 20.2594 21.5789L20.2692 21.5551L20.2724 21.5464L20.2746 21.5421V21.5399L20.2757 21.5388C20.2945 21.4922 20.309 21.444 20.319 21.3948L23.5473 5.11767C23.5575 5.06556 23.5626 5.01259 23.5625 4.9595C23.5625 4.48283 23.3827 4.02892 22.9613 3.75483C22.5994 3.51975 22.1975 3.50892 21.9429 3.52842C21.6699 3.55008 21.4164 3.61725 21.2463 3.67142C21.1511 3.70159 21.0572 3.73556 20.9647 3.77325L20.9528 3.77867L2.84592 10.881L2.84375 10.8821C2.78249 10.9046 2.72213 10.9296 2.66283 10.9568C2.51925 11.0214 2.38152 11.0982 2.25117 11.1865C2.00525 11.3544 1.43867 11.8159 1.53508 12.5786C1.61092 13.1852 2.02692 13.559 2.2815 13.7388C2.42017 13.8374 2.55233 13.9078 2.64983 13.9544C2.69317 13.9761 2.78633 14.0129 2.82642 14.0302L2.83725 14.0335L6.27033 15.1883ZM21.5865 5.27475H21.5843C21.575 5.27889 21.5656 5.28286 21.5562 5.28667L3.42767 12.3977C3.41834 12.4014 3.40895 12.405 3.3995 12.4085L3.38867 12.4117C3.35555 12.4248 3.32302 12.4392 3.29117 12.4551C3.32132 12.4724 3.35242 12.4879 3.38433 12.5017L6.78817 13.6478C6.84899 13.6683 6.90718 13.696 6.9615 13.7302L18.2033 7.14892L18.2141 7.1435C18.2577 7.11696 18.3026 7.09238 18.3484 7.06983C18.4264 7.02975 18.551 6.97125 18.6918 6.92792C18.7893 6.89758 19.0786 6.812 19.3906 6.91275C19.5561 6.96491 19.7036 7.06256 19.8162 7.19455C19.9288 7.32653 20.0021 7.48753 20.0276 7.65917C20.0679 7.80948 20.069 7.96763 20.0308 8.1185C19.955 8.41642 19.747 8.64825 19.5574 8.82592C19.3949 8.97758 17.2868 11.0099 15.2078 13.0162L12.3771 15.7462L11.8733 16.2337L18.2347 21.1109C18.3205 21.147 18.4138 21.1618 18.5066 21.1543C18.5533 21.1479 18.5973 21.1284 18.6333 21.0979C18.6773 21.0608 18.7149 21.017 18.7449 20.9679L18.7471 20.9668L21.8779 5.17942C21.7793 5.20314 21.6826 5.23428 21.5887 5.27258H21.5865M12.4204 18.6994L11.1508 17.7266L10.8431 19.682L12.4204 18.6994ZM9.98617 15.7961L11.2483 14.5773L14.079 11.8452L15.1331 10.829L8.06975 14.9641L8.10767 15.0529C8.55314 16.1053 8.9937 17.1598 9.42933 18.2163L9.73592 16.2662C9.76366 16.0854 9.85187 15.9193 9.98617 15.795" fill="black"/>
</svg>
