<svg width="26" height="26" viewBox="0 0 26 26" fill="none" xmlns="http://www.w3.org/2000/svg">
<path fill-rule="evenodd" clip-rule="evenodd" d="M25.3554 18.2704C24.7661 17.0836 23.9895 15.9994 23.0555 15.0594C22.7431 14.7064 22.416 14.3666 22.0751 14.0411L22.0339 14.001C21.9073 13.8784 21.7824 13.7542 21.6591 13.6283C22.9359 11.8525 24.0285 9.95118 24.9199 7.95383L24.9557 7.87367L24.9806 7.78917C25.0987 7.39592 25.233 6.64842 24.7563 5.97242C24.2623 5.27475 23.4726 5.14908 22.9428 5.14908H20.5086C19.9989 5.12586 19.4949 5.26446 19.0688 5.54505C18.6426 5.82564 18.3161 6.23385 18.1361 6.71125C17.6122 7.95886 16.9563 9.14682 16.1796 10.2548V7.40242C16.1796 7.03408 16.1449 6.41658 15.7495 5.89658C15.2772 5.27258 14.5936 5.14908 14.1191 5.14908H10.2559C9.75181 5.13748 9.26256 5.32021 8.88947 5.65941C8.51639 5.99862 8.28805 6.46832 8.25175 6.97125L8.2485 7.02V7.06875C8.2485 7.59417 8.4565 7.982 8.62333 8.22575C8.69808 8.33517 8.77717 8.43483 8.82808 8.49767L8.83892 8.51175C8.89308 8.57892 8.92883 8.62333 8.96458 8.67317C9.05992 8.801 9.19533 9.00033 9.23433 9.51383V11.1096C8.45886 9.81101 7.82301 8.43401 7.33742 7.00158L7.32875 6.97775L7.32008 6.955C7.18792 6.60942 6.97667 6.10675 6.55308 5.72325C6.05908 5.27367 5.47408 5.14908 4.94217 5.14908H2.47217C1.93375 5.14908 1.28483 5.27475 0.800584 5.785C0.325001 6.28767 0.270834 6.89 0.270834 7.2085V7.35367L0.301167 7.4945C0.985076 10.6695 2.39442 13.6432 4.41892 16.1828C5.34449 17.6424 6.60106 18.8633 8.0867 19.7464C9.57235 20.6296 11.2452 21.1501 12.9697 21.2658L13.0141 21.2691H13.0596C13.8461 21.2691 14.6662 21.2008 15.2826 20.7902C16.1135 20.2356 16.1796 19.3852 16.1796 18.9605V17.7277C16.393 17.901 16.6573 18.1328 16.9812 18.4448C17.3734 18.837 17.6854 19.1772 17.953 19.474L18.096 19.6322C18.304 19.864 18.5087 20.0926 18.6951 20.28C18.9291 20.5151 19.2183 20.774 19.5802 20.9657C19.9734 21.1727 20.3862 21.2669 20.8238 21.2669H23.2949C23.816 21.2669 24.5624 21.1434 25.0878 20.5346C25.6598 19.8716 25.6165 19.058 25.4367 18.4741L25.4042 18.369L25.3554 18.2704ZM19.1587 18.3852C18.823 18.0099 18.4773 17.6436 18.122 17.2867L18.1187 17.2835C16.6487 15.8665 15.9629 15.6206 15.4776 15.6206C15.2187 15.6206 14.9337 15.6487 14.7485 15.8806C14.6651 15.9912 14.6104 16.1207 14.5892 16.2576C14.5631 16.4165 14.5515 16.5775 14.5546 16.7386V18.9605C14.5546 19.2367 14.5091 19.3527 14.3812 19.4372C14.2112 19.5509 13.8482 19.643 13.0693 19.643C11.5897 19.5423 10.1551 19.0919 8.88352 18.3288C7.6119 17.5657 6.53956 16.5116 5.75467 15.2533L5.746 15.2392L5.73517 15.2262C3.84921 12.8788 2.53483 10.1251 1.89583 7.1825C1.90017 7.04167 1.9305 6.95608 1.98033 6.90408C2.03125 6.84992 2.15583 6.77408 2.47217 6.77408H4.94217C5.21625 6.77408 5.35925 6.83475 5.46217 6.92683C5.577 7.033 5.67883 7.21175 5.80017 7.53025C6.40683 9.31342 7.22583 10.9817 8.00258 12.2081C8.39042 12.8202 8.77175 13.3304 9.11625 13.6912C9.2885 13.871 9.45642 14.0205 9.61783 14.1267C9.77275 14.2285 9.94933 14.3097 10.1313 14.3097C10.2267 14.3097 10.3383 14.2989 10.4455 14.2523C10.5613 14.2012 10.6567 14.1127 10.7163 14.001C10.8279 13.7973 10.8593 13.4972 10.8593 13.104V9.44992C10.8019 8.56375 10.5343 8.06433 10.2743 7.71008C10.2217 7.63923 10.1675 7.56952 10.1118 7.501L10.0978 7.48367C10.0516 7.42755 10.0075 7.36974 9.96558 7.31033C9.91226 7.24408 9.88016 7.16328 9.8735 7.0785C9.882 6.99241 9.92308 6.91283 9.98833 6.85604C10.0536 6.79925 10.1381 6.76954 10.2245 6.773H14.1191C14.3422 6.773 14.417 6.82717 14.4549 6.87808C14.5091 6.9485 14.5546 7.09475 14.5546 7.40242V12.3077C14.5546 12.8906 14.8232 13.2849 15.2132 13.2849C15.6617 13.2849 15.9857 13.013 16.5512 12.4475L16.5609 12.4367L16.5696 12.4269C17.8381 10.8802 18.8746 9.15696 19.6462 7.31142L19.6506 7.29842C19.7086 7.13536 19.8183 6.99575 19.963 6.90088C20.1078 6.80602 20.2796 6.7611 20.4522 6.773H22.9439C23.2819 6.773 23.3924 6.85967 23.4292 6.91058C23.4672 6.96475 23.4942 7.08067 23.4292 7.30817C22.5394 9.29755 21.4393 11.1861 20.1478 12.9415L20.1392 12.9545C20.0146 13.1462 19.877 13.3586 19.8575 13.6012C19.8358 13.8634 19.9485 14.1007 20.1467 14.3563C20.2908 14.5687 20.5887 14.8601 20.891 15.1558L20.9192 15.184C21.2355 15.4938 21.5789 15.8297 21.8541 16.1547L21.8617 16.1622L21.8692 16.1709C22.6898 16.9894 23.3721 17.9355 23.8897 18.9724C23.972 19.2541 23.9222 19.3992 23.8572 19.474C23.7824 19.5607 23.6145 19.6419 23.296 19.6419H20.8238C20.6553 19.646 20.4886 19.6069 20.3396 19.5282C20.1569 19.4219 19.9912 19.289 19.8477 19.1338C19.6928 18.9789 19.5249 18.7915 19.3191 18.5629L19.1598 18.3852" fill="black"/>
</svg>
