<svg width="26" height="26" viewBox="0 0 26 26" fill="none" xmlns="http://www.w3.org/2000/svg">
<path d="M13.0433 2.16667C7.12833 2.16667 2.3075 6.9875 2.3075 12.9025C2.3075 14.7983 2.80583 16.64 3.7375 18.265L2.22083 23.8333L7.90833 22.3383C9.47917 23.1942 11.245 23.6492 13.0433 23.6492C18.9583 23.6492 23.7792 18.8283 23.7792 12.9133C23.7792 10.0425 22.6633 7.345 20.6375 5.31917C19.6443 4.31592 18.4613 3.52047 17.1574 2.97922C15.8536 2.43797 14.455 2.16175 13.0433 2.16667ZM13.0542 3.97583C15.4375 3.97583 17.6692 4.9075 19.3592 6.5975C20.1886 7.42663 20.8461 8.41134 21.2942 9.49516C21.7422 10.579 21.9719 11.7406 21.97 12.9133C21.97 17.8317 17.9617 21.8292 13.0433 21.8292C11.44 21.8292 9.86917 21.4067 8.50417 20.5833L8.17917 20.3992L4.79917 21.2875L5.69833 17.9942L5.48167 17.6475C4.58677 16.2269 4.11343 14.5815 4.11667 12.9025C4.1275 7.98417 8.125 3.97583 13.0542 3.97583ZM9.24083 7.94083C9.0675 7.94083 8.775 8.00583 8.52583 8.27667C8.2875 8.5475 7.58333 9.20833 7.58333 10.5192C7.58333 11.8408 8.5475 13.1083 8.66667 13.2925C8.81833 13.4767 10.5733 16.185 13.2708 17.3333C13.91 17.6258 14.4083 17.7883 14.7983 17.9075C15.4375 18.1133 16.0225 18.0808 16.4883 18.0158C17.0083 17.94 18.07 17.3658 18.2975 16.7375C18.525 16.1092 18.525 15.5783 18.46 15.4592C18.3842 15.3508 18.2108 15.2858 17.94 15.1667C17.6692 15.015 16.3475 14.365 16.1092 14.2783C15.86 14.1917 15.7083 14.1483 15.5025 14.4083C15.3292 14.6792 14.8092 15.2858 14.6575 15.4592C14.495 15.6433 14.3433 15.665 14.0833 15.535C13.8017 15.3942 12.935 15.1125 11.9167 14.2025C11.115 13.4875 10.5842 12.61 10.4217 12.3392C10.2917 12.0792 10.4108 11.9167 10.5408 11.7975C10.66 11.6783 10.8333 11.4833 10.9417 11.3208C11.0825 11.1692 11.1258 11.05 11.2125 10.8767C11.2992 10.6925 11.2558 10.5408 11.1908 10.4108C11.1258 10.2917 10.5842 8.94833 10.3567 8.4175C10.14 7.8975 9.92333 7.9625 9.75 7.95167C9.59833 7.95167 9.425 7.94083 9.24083 7.94083Z" fill="black"/>
</svg>
