<svg width="44" height="44" viewBox="0 0 44 44" fill="none" xmlns="http://www.w3.org/2000/svg">
<g clip-path="url(#clip0_20_10)">
<path fill-rule="evenodd" clip-rule="evenodd" d="M0.270273 11.0723C-0.197971 13.4216 -0.0333469 15.8531 0.747284 18.1178C1.52791 20.3826 2.89649 22.3991 4.71285 23.9609C6.52921 25.5228 8.72807 26.5737 11.0842 27.0062C13.4404 27.4386 15.8691 27.237 18.1217 26.422L34.2508 42.5511C34.6944 42.9947 35.222 43.3453 35.8027 43.5824C36.3835 43.8195 37.0057 43.9383 37.6329 43.9319C38.2602 43.9254 38.8799 43.7939 39.4556 43.5449C40.0314 43.296 40.5517 42.9346 40.986 42.482L42.6768 40.722C43.5283 39.8351 43.9995 38.6506 43.9902 37.4212C43.9808 36.1918 43.4914 35.0147 42.6266 34.1409L26.4534 17.7886C27.1783 15.5492 27.3071 13.1596 26.8272 10.8553C26.3473 8.55101 25.2752 6.41152 23.7166 4.64771C22.1581 2.8839 20.1668 1.55665 17.9391 0.796767C15.7114 0.0368822 13.3241 -0.129407 11.0126 0.314286C10.4676 0.414769 9.94981 0.628693 9.49284 0.942183C9.03587 1.25567 8.64991 1.66172 8.35999 2.134C8.1755 2.4351 8.0978 2.78956 8.13942 3.14022C8.18104 3.49089 8.33956 3.81731 8.58942 4.06686L14.8751 10.3526L14.894 10.3714C15.0461 10.518 15.167 10.6938 15.2497 10.8882C15.3323 11.0826 15.3749 11.2916 15.3749 11.5029C15.3749 11.7141 15.3323 11.9231 15.2497 12.1175C15.167 12.3119 15.0461 12.4877 14.894 12.6343C14.8668 12.6616 14.8406 12.6899 14.8154 12.7191L12.716 15.0637C12.4209 15.3371 12.0321 15.4869 11.6298 15.4822C11.2276 15.4775 10.8424 15.3187 10.5537 15.0386L4.27427 8.75914C4.05268 8.53688 3.7696 8.38606 3.46152 8.32612C3.15344 8.26619 2.83446 8.29988 2.5457 8.42286C1.98913 8.66115 1.4946 9.02388 1.10014 9.48318C0.705676 9.94248 0.42178 10.4861 0.270273 11.0723Z" fill="black"/>
<g clip-path="url(#clip1_20_10)">
<path d="M9.405 29.05C8.992 27.65 7.008 27.65 6.595 29.05L6.495 29.39C6.43329 29.5996 6.32545 29.7927 6.17939 29.9552C6.03333 30.1177 5.85275 30.2454 5.6509 30.3291C5.44904 30.4127 5.23103 30.4501 5.01285 30.4385C4.79466 30.4269 4.58185 30.3666 4.39 30.262L4.08 30.092C2.797 29.394 1.394 30.797 2.093 32.079L2.262 32.39C2.708 33.21 2.285 34.231 1.39 34.495L1.05 34.595C-0.35 35.008 -0.35 36.992 1.05 37.405L1.39 37.505C1.59959 37.5667 1.79272 37.6745 1.95521 37.8206C2.11771 37.9667 2.24544 38.1472 2.32906 38.3491C2.41268 38.551 2.45006 38.769 2.43846 38.9872C2.42685 39.2053 2.36656 39.4182 2.262 39.61L2.092 39.92C1.394 41.203 2.797 42.606 4.079 41.907L4.39 41.738C4.58185 41.6334 4.79466 41.5731 5.01285 41.5615C5.23103 41.5499 5.44904 41.5873 5.6509 41.6709C5.85275 41.7546 6.03333 41.8823 6.17939 42.0448C6.32545 42.2073 6.43329 42.4004 6.495 42.61L6.595 42.95C7.008 44.35 8.992 44.35 9.405 42.95L9.505 42.61C9.56671 42.4004 9.67455 42.2073 9.82061 42.0448C9.96667 41.8823 10.1472 41.7546 10.3491 41.6709C10.551 41.5873 10.769 41.5499 10.9872 41.5615C11.2053 41.5731 11.4182 41.6334 11.61 41.738L11.92 41.908C13.203 42.606 14.606 41.203 13.907 39.921L13.738 39.61C13.6334 39.4182 13.5731 39.2053 13.5615 38.9872C13.5499 38.769 13.5873 38.551 13.6709 38.3491C13.7546 38.1472 13.8823 37.9667 14.0448 37.8206C14.2073 37.6745 14.4004 37.5667 14.61 37.505L14.95 37.405C16.35 36.992 16.35 35.008 14.95 34.595L14.61 34.495C14.4004 34.4333 14.2073 34.3255 14.0448 34.1794C13.8823 34.0333 13.7546 33.8528 13.6709 33.6509C13.5873 33.449 13.5499 33.231 13.5615 33.0128C13.5731 32.7947 13.6334 32.5818 13.738 32.39L13.908 32.08C14.606 30.797 13.203 29.394 11.921 30.093L11.61 30.262C11.4182 30.3666 11.2053 30.4269 10.9872 30.4385C10.769 30.4501 10.551 30.4127 10.3491 30.3291C10.1472 30.2454 9.96667 30.1177 9.82061 29.9552C9.67455 29.7927 9.56671 29.5996 9.505 29.39L9.405 29.05ZM8 38.93C7.22292 38.93 6.47766 38.6213 5.92818 38.0718C5.3787 37.5223 5.07 36.7771 5.07 36C5.07 35.2229 5.3787 34.4777 5.92818 33.9282C6.47766 33.3787 7.22292 33.07 8 33.07C8.77682 33.07 9.52182 33.3786 10.0711 33.9279C10.6204 34.4772 10.929 35.2222 10.929 35.999C10.929 36.7758 10.6204 37.5208 10.0711 38.0701C9.52182 38.6194 8.77682 38.928 8 38.928V38.93Z" fill="black"/>
</g>
</g>
<defs>
<clipPath id="clip0_20_10">
<rect width="44" height="44" fill="white" transform="translate(0 44) rotate(-90)"/>
</clipPath>
<clipPath id="clip1_20_10">
<rect width="16" height="16" fill="white" transform="translate(0 28)"/>
</clipPath>
</defs>
</svg>
