<svg width="26" height="26" viewBox="0 0 26 26" fill="none" xmlns="http://www.w3.org/2000/svg">
<path d="M12.8333 4C13.7596 4 14.7097 4.02383 15.6305 4.06283L16.7182 4.11483L17.7593 4.17658L18.7343 4.24267L19.6247 4.312C20.5911 4.38597 21.5005 4.79836 22.1928 5.47663C22.8852 6.15489 23.3161 7.05558 23.4099 8.02025L23.4533 8.48067L23.5345 9.4665C23.6103 10.4881 23.6667 11.6017 23.6667 12.6667C23.6667 13.7316 23.6103 14.8452 23.5345 15.8668L23.4533 16.8527C23.4392 17.0108 23.4251 17.1636 23.4099 17.3131C23.3161 18.2779 22.885 19.1787 22.1924 19.857C21.4999 20.5353 20.5902 20.9476 19.6237 21.0213L18.7353 21.0896L17.7603 21.1567L16.7182 21.2185L15.6305 21.2705C14.6987 21.311 13.7661 21.3319 12.8333 21.3333C11.9006 21.3319 10.968 21.311 10.0362 21.2705L8.9485 21.2185L7.90742 21.1567L6.93242 21.0896L6.04192 21.0213C5.07553 20.9474 4.16618 20.535 3.47385 19.8567C2.78151 19.1784 2.35054 18.2777 2.25675 17.3131L2.21342 16.8527L2.13217 15.8668C2.04933 14.8021 2.00525 13.7346 2 12.6667C2 11.6017 2.05633 10.4881 2.13217 9.4665L2.21342 8.48067C2.2275 8.3225 2.24158 8.16975 2.25675 8.02025C2.3505 7.05576 2.78132 6.1552 3.47343 5.47696C4.16555 4.79871 5.07464 4.38621 6.04083 4.312L6.93025 4.24267L7.90525 4.17658L8.94742 4.11483L10.0351 4.06283C10.9673 4.02235 11.9002 4.0014 12.8333 4ZM12.8333 6.16667C11.9396 6.16667 11.0198 6.1905 10.125 6.22733L9.0655 6.27825L8.04825 6.33783L7.09275 6.40283L6.21742 6.47108C5.75736 6.50372 5.32371 6.6982 4.99335 7.02004C4.66299 7.34187 4.45724 7.77028 4.41258 8.22933C4.28583 9.53908 4.16667 11.1695 4.16667 12.6667C4.16667 14.1638 4.28583 15.7942 4.41258 17.104C4.50467 18.0487 5.25433 18.7832 6.21742 18.8622L7.09275 18.9294L8.04825 18.9944L9.0655 19.0551L10.125 19.106C11.0198 19.1428 11.9396 19.1667 12.8333 19.1667C13.7271 19.1667 14.6468 19.1428 15.5417 19.106L16.6012 19.0551L17.6184 18.9955L18.5739 18.9305L19.4493 18.8622C19.9093 18.8296 20.343 18.6351 20.6733 18.3133C21.0037 17.9915 21.2094 17.563 21.2541 17.104C21.3808 15.7942 21.5 14.1638 21.5 12.6667C21.5 11.1695 21.3808 9.53908 21.2541 8.22933C21.2094 7.77028 21.0037 7.34187 20.6733 7.02004C20.343 6.6982 19.9093 6.50372 19.4493 6.47108L18.5739 6.40392L17.6184 6.33892L16.6012 6.27825L15.5417 6.22733C14.6394 6.18851 13.7364 6.16829 12.8333 6.16667ZM10.6667 10.0396C10.6666 9.9337 10.6924 9.82941 10.7418 9.73577C10.7912 9.64213 10.8628 9.56198 10.9502 9.50229C11.0377 9.4426 11.1384 9.40517 11.2436 9.39327C11.3488 9.38137 11.4553 9.39535 11.5539 9.434L11.6417 9.47733L16.1917 12.1033C16.2823 12.1556 16.3589 12.229 16.4151 12.3172C16.4713 12.4055 16.5053 12.506 16.5144 12.6102C16.5234 12.7144 16.5072 12.8192 16.467 12.9158C16.4269 13.0124 16.364 13.0979 16.2838 13.165L16.1917 13.23L11.6417 15.8571C11.55 15.9102 11.4467 15.9401 11.3408 15.9441C11.2349 15.9482 11.1297 15.9263 11.0342 15.8804C10.9387 15.8344 10.8559 15.7659 10.793 15.6806C10.7301 15.5954 10.6889 15.496 10.6732 15.3912L10.6667 15.2937V10.0396Z" fill="black"/>
</svg>
