<svg width="100" height="70" viewBox="0 0 100 70" fill="none" xmlns="http://www.w3.org/2000/svg">
<g clip-path="url(#clip0_8_2)">
<path d="M97.9718 10.8198C97.397 8.72839 96.276 6.82172 94.7203 5.2897C93.1645 3.75768 91.2284 2.65378 89.1047 2.08793C81.3296 0 50.0404 0 50.0404 0C50.0404 0 18.7499 0.0633621 10.976 2.15129C8.85245 2.71724 6.91645 3.82118 5.36084 5.35319C3.80523 6.8852 2.68428 8.79182 2.10961 10.8832C-0.242102 24.4879 -1.15448 45.217 2.17395 58.2768C2.74861 60.3682 3.86956 62.2748 5.42518 63.8068C6.98079 65.3388 8.91679 66.4428 11.0404 67.0087C18.8149 69.0966 50.1047 69.0966 50.1047 69.0966C50.1047 69.0966 81.3946 69.0966 89.1691 67.0087C91.2927 66.4428 93.2286 65.3388 94.7843 63.8068C96.3399 62.2748 97.4608 60.3682 98.0355 58.2768C100.515 44.6534 101.28 23.937 97.9712 10.8204L97.9718 10.8198Z" fill="#FF0000"/>
<path d="M40.0815 49.3548L66.0386 34.5486L40.0815 19.7418V49.3548Z" fill="white"/>
</g>
<defs>
<clipPath id="clip0_8_2">
<rect width="100" height="70" fill="white"/>
</clipPath>
</defs>
</svg>
